<?xml version="1.0" encoding="UTF-8" standalone="no"?>
<!-- Created with Inkscape (http://www.inkscape.org/) -->

<svg
   xmlns:dc="http://purl.org/dc/elements/1.1/"
   xmlns:cc="http://creativecommons.org/ns#"
   xmlns:rdf="http://www.w3.org/1999/02/22-rdf-syntax-ns#"
   xmlns:svg="http://www.w3.org/2000/svg"
   xmlns="http://www.w3.org/2000/svg"
   xmlns:xlink="http://www.w3.org/1999/xlink"
   xmlns:sodipodi="http://sodipodi.sourceforge.net/DTD/sodipodi-0.dtd"
   xmlns:inkscape="http://www.inkscape.org/namespaces/inkscape"
   width="96"
   height="96"
   id="svg6517"
   version="1.1"
   inkscape:version="0.48.2 r9819"
   sodipodi:docname="openicf-ldap-juju-icon.svg">
  <defs
     id="defs6519">
    <linearGradient
       inkscape:collect="always"
       xlink:href="#Background"
       id="linearGradient6461"
       gradientUnits="userSpaceOnUse"
       x1="0"
       y1="970.29498"
       x2="144"
       y2="970.29498"
       gradientTransform="matrix(0,-0.66666669,0.6660448,0,-866.25992,731.29077)" />
    <linearGradient
       id="Background">
      <stop
         id="stop4178"
         offset="0"
         style="stop-color:#ffffff;stop-opacity:1;" />
      <stop
         id="stop4180"
         offset="1"
         style="stop-color:#ffffff;stop-opacity:1;" />
    </linearGradient>
    <filter
       style="color-interpolation-filters:sRGB;"
       inkscape:label="Inner Shadow"
       id="filter1121">
      <feFlood
         flood-opacity="0.59999999999999998"
         flood-color="rgb(0,0,0)"
         result="flood"
         id="feFlood1123" />
      <feComposite
         in="flood"
         in2="SourceGraphic"
         operator="out"
         result="composite1"
         id="feComposite1125" />
      <feGaussianBlur
         in="composite1"
         stdDeviation="1"
         result="blur"
         id="feGaussianBlur1127" />
      <feOffset
         dx="0"
         dy="2"
         result="offset"
         id="feOffset1129" />
      <feComposite
         in="offset"
         in2="SourceGraphic"
         operator="atop"
         result="composite2"
         id="feComposite1131" />
    </filter>
    <filter
       style="color-interpolation-filters:sRGB;"
       inkscape:label="Drop Shadow"
       id="filter950">
      <feFlood
         flood-opacity="0.80722891566265065"
         flood-color="rgb(0,0,0)"
         result="flood"
         id="feFlood952" />
      <feComposite
         in="flood"
         in2="SourceGraphic"
         operator="in"
         result="composite1"
         id="feComposite954" />
      <feGaussianBlur
         in="composite1"
         stdDeviation="1"
         result="blur"
         id="feGaussianBlur956" />
      <feOffset
         dx="0"
         dy="1"
         result="offset"
         id="feOffset958" />
      <feComposite
         in="SourceGraphic"
         in2="offset"
         operator="over"
         result="composite2"
         id="feComposite960" />
    </filter>
    <clipPath
       clipPathUnits="userSpaceOnUse"
       id="clipPath873">
      <g
         transform="matrix(0,-0.66666667,0.66604479,0,-258.25992,677.00001)"
         id="g875"
         inkscape:label="Layer 1"
         style="fill:#ff00ff;fill-opacity:1;stroke:none;display:inline">
        <path
           style="fill:#ff00ff;fill-opacity:1;stroke:none;display:inline"
           d="m 46.702703,898.22775 50.594594,0 C 138.16216,898.22775 144,904.06497 144,944.92583 l 0,50.73846 c 0,40.86071 -5.83784,46.69791 -46.702703,46.69791 l -50.594594,0 C 5.8378378,1042.3622 0,1036.525 0,995.66429 L 0,944.92583 C 0,904.06497 5.8378378,898.22775 46.702703,898.22775 Z"
           id="path877"
           inkscape:connector-curvature="0"
           sodipodi:nodetypes="sssssssss" />
      </g>
    </clipPath>
    <filter
       inkscape:collect="always"
       id="filter891"
       inkscape:label="Badge Shadow">
      <feGaussianBlur
         inkscape:collect="always"
         stdDeviation="0.71999962"
         id="feGaussianBlur893" />
    </filter>
  </defs>
  <sodipodi:namedview
     id="base"
     pagecolor="#ffffff"
     bordercolor="#666666"
     borderopacity="1.0"
     inkscape:pageopacity="0.0"
     inkscape:pageshadow="2"
     inkscape:zoom="5.5625"
     inkscape:cx="48"
     inkscape:cy="42.880246"
     inkscape:document-units="px"
     inkscape:current-layer="layer1"
     showgrid="true"
     fit-margin-top="0"
     fit-margin-left="0"
     fit-margin-right="0"
     fit-margin-bottom="0"
     inkscape:window-width="1280"
     inkscape:window-height="752"
     inkscape:window-x="3"
     inkscape:window-y="21"
     inkscape:window-maximized="0"
     showborder="true"
     showguides="true"
     inkscape:guide-bbox="true"
     inkscape:showpageshadow="false"
     inkscape:snap-to-guides="false"
     inkscape:snap-grids="false">
    <inkscape:grid
       type="xygrid"
       id="grid821" />
    <sodipodi:guide
       orientation="1,0"
       position="16,48"
       id="guide823" />
    <sodipodi:guide
       orientation="0,1"
       position="64,80"
       id="guide825" />
    <sodipodi:guide
       orientation="1,0"
       position="80,40"
       id="guide827" />
    <sodipodi:guide
       orientation="0,1"
       position="64,16"
       id="guide829" />
  </sodipodi:namedview>
  <metadata
     id="metadata6522">
    <rdf:RDF>
      <cc:Work
         rdf:about="">
        <dc:format>image/svg+xml</dc:format>
        <dc:type
           rdf:resource="http://purl.org/dc/dcmitype/StillImage" />
        <dc:title></dc:title>
      </cc:Work>
    </rdf:RDF>
  </metadata>
  <g
     inkscape:label="BACKGROUND"
     inkscape:groupmode="layer"
     id="layer1"
     transform="translate(268,-635.29076)"
     style="display:inline">
    <path
       style="fill:url(#linearGradient6461);fill-opacity:1;stroke:none;display:inline;filter:url(#filter1121)"
       d="m -268,700.15563 0,-33.72973 c 0,-27.24324 3.88785,-31.13513 31.10302,-31.13513 l 33.79408,0 c 27.21507,0 31.1029,3.89189 31.1029,31.13513 l 0,33.72973 c 0,27.24325 -3.88783,31.13514 -31.1029,31.13514 l -33.79408,0 C -264.11215,731.29077 -268,727.39888 -268,700.15563 Z"
       id="path6455"
       inkscape:connector-curvature="0"
       sodipodi:nodetypes="sssssssss" />
    <g
       transform="matrix(0.16,0,0,0.16,-254.48743,659.33975)"
       id="g3940">
      <path
         style="fill:#a0d6f3;fill-rule:evenodd"
         inkscape:connector-curvature="0"
         clip-rule="evenodd"
         d="m 231.42,256.545 c -2.574,3.631 -3.56,8.026 -6.188,11.734 -12.708,17.925 -29.432,29.527 -51.229,33.216 -22.576,3.82 -43.39,-0.821 -61.536,-14.86 -9.371,-7.25 -17.063,-16.318 -22.367,-27.137 -0.073,-0.149 -0.19,-0.275 -0.263,-0.424 -0.893,-1.818 0.339,-4.82 -2.509,-5.452 -2.062,-0.458 -4.312,-0.281 -6.457,-0.114 -8.792,0.687 -17.542,0.487 -26.026,-2.059 -28.958,-8.69 -47.26,-27.727 -53.306,-57.39 -4.405,-21.613 0.739,-41.574 14.261,-59.083 4.575,-5.924 10.068,-11.086 16.325,-15.312 1.109,-0.749 2.282,-1.362 3.133,-2.918 -2.097,-6.488 -4.606,-13.139 -5.346,-20.248 -0.81,-7.791 -0.843,-15.547 0.031,-23.354 0.86,-7.678 3.019,-14.926 6.06,-21.967 5.218,-12.079 12.75,-22.34 22.85,-30.917 10.49,-8.907 22.175,-15.344 35.566,-18.142 25.287,-5.285 48.672,-0.775 69.763,14.612 5.321,3.882 8.809,9.444 13.626,13.752 0.726,0.648 0.67,1.454 -0.04,2.164 -1.466,-0.394 -2.933,-0.786 -4.399,-1.179 -0.174,-0.62 -0.147,-1.541 -0.554,-1.813 -4.984,-3.333 -9.765,-7.024 -15.447,-9.186 -0.333,-0.001 -0.666,-0.001 -0.998,-0.001 -0.072,-0.663 -0.095,-1.407 -0.739,-1.762 -3.772,-2.074 -7.427,-4.446 -11.384,-6.085 C 136.271,9.317 127.914,7.946 119.238,7.226 111.368,6.574 103.606,7.038 96.27,8.842 75.337,13.995 58.804,25.95 47.469,44.422 39.342,57.668 35.639,72.331 35.368,87.86 c -0.101,5.802 1.65,11.492 1.022,17.329 -0.15,1.396 0.539,2.196 1.977,2.282 0,1.333 0,2.666 0,3.998 -1.594,1.021 -0.795,2.635 -0.995,4.002 -10e-4,0.999 -10e-4,1.999 -0.002,2.998 -1.677,3.215 -4.888,5.408 -6,9 -0.667,0.666 -1.333,1.333 -2,2 -0.861,0.055 -1.494,0.363 -2.054,1.129 -3.506,4.785 -7.055,9.47 -10.042,14.685 -7.098,12.39 -10.104,25.298 -9.105,39.628 0.77,11.048 4.051,20.993 9.653,30.202 6.638,10.913 15.84,19.293 27.223,25.248 8.916,4.665 18.454,7.093 28.378,8.048 3.28,0.315 6.629,2.607 9.948,0.065 1.333,0.332 2.666,0.664 3.999,0.996 -0.155,2.982 3.287,1.175 3.999,3.002 -0.082,3.457 1.916,5.181 5,5.999 0.667,1 1.334,1.999 2.001,2.999 0.023,0.852 0.273,1.59 0.816,2.288 8.064,10.375 17.952,18.341 29.836,24.134 14.024,6.834 28.481,9.124 43.849,6.614 12.428,-2.03 23.231,-7.529 32.958,-15.193 2.6,-2.049 5.795,-4.05 6.543,-7.842 0.387,-0.892 1.17,-0.991 1.999,-1.001 2.812,-0.521 4.479,-2.188 5,-5 0.334,-0.666 0.668,-1.333 1.001,-1.999 2.402,-0.265 3.736,-1.598 4,-4 0.334,-0.333 0.666,-0.667 1,-1 1.715,0.116 2.607,-1.179 3.685,-2.152 0.876,-0.794 1.681,-0.965 2.363,0.226 z"
         id="path3942" />
      <path
         style="fill:#a0d6f3;fill-rule:evenodd"
         inkscape:connector-curvature="0"
         clip-rule="evenodd"
         d="m 303.39,48.527 c 7.887,-4.142 16.519,-6.058 25.185,-6.813 13.612,-1.188 27.288,-0.619 40.318,4.169 33.044,12.142 54.408,35.294 62.239,69.595 6.357,27.842 0.282,53.731 -17.015,76.608 -13.501,17.855 -31.292,29.626 -53.076,34.816 -12.98,3.092 -26.204,3.838 -39.753,0.531 -9.633,17.172 -24.251,28.073 -43.197,32.958 -15.294,3.943 -30.244,2.216 -44.706,-4.023 0.109,-1.124 0.619,-1.9 1.848,-1.86 3.296,0.106 6.584,-0.267 9.893,0.324 7.711,1.376 15.569,1.119 23.24,0.344 10.455,-1.056 19.941,-5.594 28.986,-10.799 1.965,-1.131 4.873,-1.735 5.02,-4.906 3.547,0.032 5.376,-2.341 6.999,-5.001 0.001,-0.333 0.002,-0.665 0.002,-0.998 1.716,0.099 3.278,-0.111 3.997,-2.003 1.301,-0.676 0.93,-1.911 1.003,-2.997 2.757,-0.302 4.979,-2.73 7.993,-2.011 3.166,0.082 6.242,-0.247 9.004,-1.993 0.667,0 1.333,0.001 2,0.001 3.056,1.787 6.115,0.229 9.169,-0.004 12.396,-0.944 24.186,-4.764 34.982,-10.342 15.356,-7.935 27.605,-19.689 36.658,-34.766 8.221,-13.688 11.722,-28.618 13.09,-44.175 0.595,-6.768 -1.317,-13.417 -2.916,-19.999 -3.714,-15.294 -10.978,-28.635 -21.801,-40.072 -2.866,-3.028 -6.415,-5.215 -9.356,-8.178 -3.37,-3.396 -7.491,-5.968 -11.643,-8.377 -8.087,-4.694 -16.858,-7.621 -25.883,-9.895 -8.436,-2.126 -17.032,-2.851 -25.631,-2.043 -6.865,0.645 -13.59,2.587 -20.533,2.84 -1.487,0.055 -2.545,0.628 -3.137,2.008 -1.087,-0.071 -2.322,0.302 -3.001,-0.997 0.007,-0.647 0.015,-1.294 0.022,-1.942 z"
         id="path3944" />
      <path
         style="fill:#a0d6f3;fill-rule:evenodd"
         inkscape:connector-curvature="0"
         clip-rule="evenodd"
         d="m 182.334,31.417 c 9.566,-10.271 21.477,-16.69 34.938,-19.81 24.203,-5.609 46.207,-0.744 65.803,14.91 7.676,6.133 13.551,13.534 18.262,22.013 -0.322,0.313 -0.646,0.627 -0.968,0.94 -0.667,-0.334 -1.333,-0.668 -2,-1.001 -2.383,-3.473 -6.148,-5.451 -9.048,-8.412 -9.775,-9.982 -21.294,-17.195 -34.855,-21.089 -10.893,-3.128 -21.825,-3.232 -32.916,-1.541 -10.645,1.623 -20.083,6.471 -29.679,10.887 -1.847,0.85 -4.083,1.607 -4.501,4.153 -0.677,1.302 -1.912,0.928 -2.999,0.998 -0.68,-0.683 -1.359,-1.365 -2.037,-2.048 z"
         id="path3946" />
      <path
         style="fill:#a7d9f4;fill-rule:evenodd"
         inkscape:connector-curvature="0"
         clip-rule="evenodd"
         d="m 302.371,239.471 c -0.146,3.171 -3.055,3.775 -5.02,4.906 -9.045,5.205 -18.531,9.743 -28.986,10.799 -7.671,0.775 -15.529,1.032 -23.24,-0.344 -3.309,-0.591 -6.597,-0.218 -9.893,-0.324 -1.229,-0.04 -1.738,0.736 -1.848,1.86 -0.654,0.059 -1.311,0.118 -1.965,0.177 -0.682,-1.19 -1.487,-1.02 -2.364,-0.227 -1.077,0.974 -1.97,2.269 -3.685,2.152 0,-0.667 -0.002,-1.335 -0.002,-2.002 0.388,-0.891 1.171,-0.991 2,-1.001 0.333,-0.333 0.666,-0.666 1,-0.999 2.463,0.202 0.994,-2.227 2.004,-2.996 1.332,-0.002 2.664,-0.003 3.996,-0.005 4,10e-4 7.998,0.002 11.998,0.003 0.091,1.828 1.316,2.019 2.778,2.006 3.657,-0.032 7.315,0.061 10.972,-0.021 8.15,-0.184 15.936,-1.869 23.527,-4.999 6.431,-2.65 12.378,-6.222 18.728,-8.985 z"
         id="path3948" />
      <path
         style="fill:#addbf5;fill-rule:evenodd"
         inkscape:connector-curvature="0"
         clip-rule="evenodd"
         d="m 173.37,31.468 c 1.466,0.393 2.933,0.785 4.399,1.179 0.262,0.798 0.931,0.511 1.476,0.552 0.042,1.089 0.084,2.178 0.127,3.267 -3.429,1.036 -5.295,-2.105 -8.003,-2.996 0,-0.666 0,-1.333 -0.001,-1.999 0.668,-0.002 1.335,-0.003 2.002,-0.003 z"
         id="path3950" />
      <path
         style="fill:#a7d9f4;fill-rule:evenodd"
         inkscape:connector-curvature="0"
         clip-rule="evenodd"
         d="m 179.372,36.465 c -0.042,-1.089 -0.084,-2.178 -0.127,-3.267 1.03,-0.594 2.059,-1.188 3.089,-1.781 0.678,0.683 1.357,1.365 2.035,2.049 0,0.667 0,1.334 -0.001,2.002 -0.333,0 -0.666,10e-4 -0.999,0.002 -0.829,0.006 -1.611,0.105 -2.001,0.995 -0.665,0 -1.33,0 -1.996,0 z"
         id="path3952" />
      <path
         style="fill:#a7d9f4;fill-rule:evenodd"
         inkscape:connector-curvature="0"
         clip-rule="evenodd"
         d="m 300.368,49.471 c 0.322,-0.313 0.646,-0.627 0.968,-0.94 0.685,-10e-4 1.369,-0.002 2.054,-0.003 -0.007,0.647 -0.015,1.295 -0.021,1.942 -0.939,-0.519 -2.849,1.882 -3.001,-0.999 z"
         id="path3954" />
      <path
         style="fill:#addbf5;fill-rule:evenodd"
         inkscape:connector-curvature="0"
         clip-rule="evenodd"
         d="m 156.371,20.468 c 0.333,0 0.666,0 0.998,0.001 0.153,2.452 2.524,2.734 3.926,3.934 2.559,2.188 6.004,3.21 8.074,6.066 -1.761,0.217 -3.304,-0.447 -4.677,-1.394 -6.427,-4.429 -13.374,-7.9 -20.434,-11.151 -8.661,-3.987 -17.93,-5.841 -27.32,-6.314 -7.903,-0.398 -15.625,1.433 -23.354,3.545 -20.188,5.515 -34.013,18.555 -44.027,36.098 -6.683,11.708 -9.158,24.681 -9.186,38.118 -0.012,5.822 0.048,11.646 -0.035,17.467 -0.022,1.567 0.702,3.376 -0.965,4.632 -0.334,0 -0.669,0 -1.004,0 0,-1.332 0,-2.665 0,-3.998 C 38.225,102.346 38.113,97.248 37.594,92.109 36.97,85.929 38.195,79.619 39.349,73.443 44.132,47.847 57.78,28.824 81.2,17.067 99.767,7.745 118.896,7.235 138.613,12.97 c 6.274,1.825 11.404,6.052 17.758,7.498 z"
         id="path3956" />
      <path
         style="fill:#a7d9f4;fill-rule:evenodd"
         inkscape:connector-curvature="0"
         clip-rule="evenodd"
         d="M 156.371,20.468 C 150.017,19.023 144.887,14.795 138.612,12.969 118.895,7.234 99.766,7.743 81.199,17.066 57.78,28.822 44.132,47.846 39.349,73.441 c -1.154,6.176 -2.379,12.486 -1.755,18.666 0.519,5.14 0.631,10.237 0.773,15.363 -1.438,-0.086 -2.127,-0.886 -1.977,-2.282 C 37.018,99.351 35.266,93.661 35.368,87.859 35.639,72.331 39.342,57.668 47.469,44.421 58.804,25.95 75.337,13.995 96.271,8.844 c 7.336,-1.805 15.098,-2.269 22.968,-1.616 8.675,0.72 17.033,2.091 25.009,5.394 3.957,1.639 7.612,4.011 11.384,6.085 0.644,0.354 0.667,1.098 0.739,1.761 z"
         id="path3958" />
      <path
         style="fill:#addbf5;fill-rule:evenodd"
         inkscape:connector-curvature="0"
         clip-rule="evenodd"
         d="m 29.369,129.469 c 0.667,-0.667 1.333,-1.334 2,-2 1,0 2,0 3,0 0,0.666 10e-4,1.333 10e-4,2 0.275,1.629 -1.464,1.913 -2,3 -0.861,0.055 -1.476,0.386 -2.056,1.125 -5.03,6.418 -8.871,13.457 -12.071,20.972 -5.16,12.117 -6.136,24.525 -3.831,37.33 2.405,13.361 9.349,24.444 18.789,33.649 10.371,10.114 23.28,16.073 37.558,18.852 0.984,0.191 2.014,0.146 2.612,-0.927 0.667,0 1.333,0 1.999,0 0,0.999 10e-4,1.999 0.002,2.998 -4.532,0.299 -8.833,-1.001 -13.146,-2.036 -11.993,-2.878 -22.643,-8.521 -31.374,-17.157 -6.47,-6.4 -11.574,-13.933 -15.36,-22.368 -5.934,-13.223 -6.837,-26.917 -3.334,-40.659 2.821,-11.065 7.74,-21.416 15.216,-30.319 1.072,-1.282 1.897,-2.721 1.995,-4.46 z"
         id="path3960" />
      <path
         style="fill:#a7d9f4;fill-rule:evenodd"
         inkscape:connector-curvature="0"
         clip-rule="evenodd"
         d="m 29.369,129.469 c -0.098,1.739 -0.922,3.179 -1.997,4.459 -7.476,8.903 -12.395,19.254 -15.216,30.319 -3.503,13.742 -2.6,27.437 3.334,40.659 3.786,8.436 8.89,15.968 15.36,22.368 8.731,8.637 19.381,14.279 31.374,17.157 4.313,1.035 8.614,2.335 13.146,2.036 0.667,0 1.333,0 1.999,0 0.677,1.304 1.913,0.929 3.001,1 1,0 1.999,10e-4 2.999,10e-4 0,0.335 0,0.67 0.001,1.005 -3.319,2.542 -6.668,0.25 -9.948,-0.065 -9.924,-0.955 -19.463,-3.383 -28.378,-8.048 -11.382,-5.955 -20.585,-14.335 -27.223,-25.248 -5.602,-9.209 -8.883,-19.154 -9.653,-30.202 -0.999,-14.33 2.007,-27.238 9.105,-39.628 2.987,-5.215 6.536,-9.899 10.042,-14.685 0.56,-0.765 1.192,-1.074 2.054,-1.128 z"
         id="path3962" />
      <path
         style="fill:#a7d9f4;fill-rule:evenodd"
         inkscape:connector-curvature="0"
         clip-rule="evenodd"
         d="m 212.371,271.471 c -0.749,3.792 -3.943,5.793 -6.543,7.842 -9.726,7.664 -20.53,13.163 -32.958,15.193 -15.368,2.51 -29.824,0.22 -43.849,-6.614 -11.885,-5.793 -21.772,-13.759 -29.836,-24.134 -0.543,-0.698 -0.793,-1.437 -0.816,-2.288 2.896,-0.012 3.678,3.149 6,3.999 0.333,0.333 0.667,0.667 1,1 4.159,4.718 8.36,9.231 13.874,12.633 13.029,8.04 26.422,13.964 42.273,13.484 18.178,-0.549 33.839,-6.587 47.138,-18.905 1.084,-1.005 1.975,-2.319 3.717,-2.21 z"
         id="path3964" />
      <path
         style="fill:#addbf5;fill-rule:evenodd"
         inkscape:connector-curvature="0"
         clip-rule="evenodd"
         d="m 212.371,271.471 c -1.742,-0.108 -2.633,1.205 -3.717,2.21 -13.299,12.318 -28.96,18.356 -47.138,18.905 -15.852,0.479 -29.244,-5.444 -42.273,-13.484 -5.513,-3.401 -9.714,-7.915 -13.874,-12.633 1,0 2,0 3,0 0.388,0.891 1.17,0.991 2,1 0.688,4.186 4.475,5.58 7.275,7.656 12.771,9.468 27.073,14.955 43.082,15.307 10.394,0.229 20.16,-3.057 29.666,-6.684 4.691,-1.791 8.765,-5.221 13.07,-7.984 1.13,-0.726 1.979,-1.788 1.908,-3.295 1.466,0.032 2.466,-0.635 3,-2 3.012,-0.452 4.393,-2.862 6,-5 2.32,-0.853 3.104,-4.008 5.998,-4.002 0.002,0.668 0.003,1.336 0.004,2.004 -0.333,0.666 -0.667,1.333 -1.001,1.999 -2.813,0.52 -4.48,2.187 -5,5 -0.829,0.009 -1.613,0.109 -2,1.001 z"
         id="path3966" />
      <path
         style="fill:#b1ddf5;fill-rule:evenodd"
         inkscape:connector-curvature="0"
         clip-rule="evenodd"
         d="m 77.369,246.468 c -0.667,0 -1.333,0 -1.999,0 0,-0.999 -0.001,-1.999 -0.002,-2.998 4.442,-0.041 8.712,1.037 13,2 3.842,2.785 8.009,5.173 11.003,8.996 0,0.668 -10e-4,1.336 -0.002,2.004 -1,0 -2,-0.001 -2.999,-0.001 -0.963,-2.213 -1.532,-4.921 -5.002,-3.997 -0.712,-1.827 -4.154,-0.02 -3.999,-3.002 -0.24,-2.853 -2.461,-1.745 -4,-2.001 -1,0 -1.999,-0.001 -2.999,-0.001 -0.39,-2.166 -1.311,-2.737 -3.001,-1 z"
         id="path3968" />
      <path
         style="fill:#a7d9f4;fill-rule:evenodd"
         inkscape:connector-curvature="0"
         clip-rule="evenodd"
         d="m 169.369,30.469 c -2.07,-2.856 -5.515,-3.878 -8.074,-6.066 -1.401,-1.199 -3.773,-1.481 -3.926,-3.934 5.682,2.161 10.463,5.853 15.447,9.186 0.407,0.272 0.379,1.193 0.554,1.813 -0.667,0 -1.334,0.001 -2.002,0.002 -0.387,-0.892 -1.17,-0.991 -1.999,-1.001 z"
         id="path3970" />
      <path
         style="fill:#addbf5;fill-rule:evenodd"
         inkscape:connector-curvature="0"
         clip-rule="evenodd"
         d="m 96.37,256.469 c 1,0 2,0.001 2.999,0.001 2.845,1.018 2.986,4.289 5.001,5.999 0,1 0,2 0,3 -2.322,-0.85 -3.104,-4.011 -6,-3.999 -0.667,-1 -1.334,-1.999 -2.001,-2.999 -0.001,-0.667 0,-1.335 0.001,-2.002 z"
         id="path3972" />
      <path
         style="fill:#a7d9f4;fill-rule:evenodd"
         inkscape:connector-curvature="0"
         clip-rule="evenodd"
         d="m 96.37,256.469 c -0.001,0.667 -0.001,1.335 -0.002,2.002 -3.084,-0.818 -5.082,-2.542 -5,-5.999 3.469,-0.924 4.038,1.784 5.002,3.997 z"
         id="path3974" />
      <path
         style="fill:#a7d9f4;fill-rule:evenodd"
         inkscape:connector-curvature="0"
         clip-rule="evenodd"
         d="m 34.368,127.469 c -1,0 -2,0 -3,0 1.113,-3.592 4.323,-5.785 6,-9 0.334,0 0.668,0 1.003,0 0.516,2.141 -1.15,3.407 -2.003,5 -1.89,0.72 -2.1,2.282 -2,4 l 0,0 z"
         id="path3976" />
      <path
         style="fill:#a7d9f4;fill-rule:evenodd"
         inkscape:connector-curvature="0"
         clip-rule="evenodd"
         d="m 214.37,270.47 c 0.52,-2.813 2.187,-4.48 5,-5 -0.521,2.811 -2.188,4.478 -5,5 z"
         id="path3978" />
      <path
         style="fill:#a7d9f4;fill-rule:evenodd"
         inkscape:connector-curvature="0"
         clip-rule="evenodd"
         d="m 220.371,263.471 c -0.001,-0.668 -0.002,-1.336 -0.004,-2.004 0.334,-0.666 0.668,-1.332 1.003,-1.998 1.001,0.001 2.001,0.001 3.001,0.002 -0.264,2.402 -1.598,3.735 -4,4 z"
         id="path3980" />
      <path
         style="fill:#addbf5;fill-rule:evenodd"
         inkscape:connector-curvature="0"
         clip-rule="evenodd"
         d="m 224.371,259.471 c -1,-10e-4 -2,-10e-4 -3.001,-0.002 0.071,-1.087 -0.303,-2.322 1,-2.999 0.999,0 1.999,-0.001 2.999,-0.001 0,0.667 0.002,1.335 0.002,2.002 -0.334,0.333 -0.666,0.667 -1,1 z"
         id="path3982" />
      <path
         style="fill:#addbf5;fill-rule:evenodd"
         inkscape:connector-curvature="0"
         clip-rule="evenodd"
         d="m 38.372,118.469 c -0.334,0 -0.668,0 -1.003,0 10e-4,-0.999 10e-4,-1.999 0.002,-2.998 0.666,-0.001 1.333,-0.001 1.999,-0.002 1.735,1.688 1.169,2.61 -0.998,3 z"
         id="path3984" />
      <path
         style="fill:#a7d9f4;fill-rule:evenodd"
         inkscape:connector-curvature="0"
         clip-rule="evenodd"
         d="m 39.37,115.469 c -0.666,0.001 -1.333,0.001 -1.999,0.002 0.2,-1.367 -0.599,-2.981 0.995,-4.002 0.335,0 0.669,0 1.004,0 0.001,1.333 0,2.667 0,4 z"
         id="path3986" />
      <path
         style="fill:#addbf5;fill-rule:evenodd"
         inkscape:connector-curvature="0"
         clip-rule="evenodd"
         d="m 83.369,247.469 c 1.539,0.256 3.76,-0.852 4,2.001 -1.333,-0.332 -2.666,-0.664 -3.999,-0.996 -0.001,-0.335 -0.001,-0.67 -0.001,-1.005 z"
         id="path3988" />
      <path
         style="fill:#a7d9f4;fill-rule:evenodd"
         inkscape:connector-curvature="0"
         clip-rule="evenodd"
         d="m 306.369,51.467 c 0.592,-1.38 1.649,-1.953 3.137,-2.008 6.943,-0.253 13.668,-2.195 20.533,-2.84 8.599,-0.808 17.195,-0.083 25.631,2.043 9.024,2.273 17.796,5.2 25.883,9.895 4.151,2.409 8.272,4.98 11.643,8.377 2.941,2.963 6.49,5.149 9.356,8.178 10.823,11.438 18.087,24.778 21.801,40.072 1.599,6.582 3.511,13.231 2.916,19.999 -1.368,15.557 -4.869,30.486 -13.09,44.175 -9.053,15.076 -21.302,26.831 -36.658,34.766 -10.797,5.578 -22.586,9.397 -34.982,10.342 -3.054,0.232 -6.113,1.791 -9.169,0.004 0.085,-1.84 1.323,-2.017 2.782,-2.009 2.33,0.013 4.743,0.331 6.977,-0.15 15.925,-3.435 31.375,-7.903 44.737,-17.983 12.91,-9.739 22.982,-21.834 29.044,-36.568 5.312,-12.913 8.286,-26.479 6.691,-41.004 -1.685,-15.345 -7.661,-28.607 -15.827,-41.212 -1.607,-2.481 -3.434,-5.094 -5.784,-6.764 -5.455,-3.873 -9.378,-9.375 -14.896,-13.167 -6.718,-4.616 -13.616,-8.736 -21.434,-11.258 -5.993,-1.934 -12.034,-3.276 -18.3,-4.184 -9.993,-1.446 -19.818,-0.395 -29.704,0.419 -0.972,0.079 -1.193,1.018 -1.289,1.878 -1.333,10e-4 -2.665,10e-4 -3.998,10e-4 -1.335,-1.484 -2.668,-1.486 -4,0.004 -0.667,0 -1.333,0 -2,0 0,-0.336 0,-0.671 0,-1.006 z"
         id="path3990" />
      <path
         style="fill:#addbf5;fill-rule:evenodd"
         inkscape:connector-curvature="0"
         clip-rule="evenodd"
         d="m 316.367,52.467 c 0.096,-0.86 0.317,-1.799 1.289,-1.878 9.886,-0.813 19.711,-1.865 29.704,-0.419 6.266,0.907 12.307,2.25 18.3,4.184 7.817,2.521 14.716,6.642 21.434,11.258 5.518,3.792 9.44,9.294 14.896,13.167 2.351,1.67 4.177,4.282 5.784,6.764 8.166,12.604 14.143,25.867 15.827,41.212 1.595,14.525 -1.379,28.091 -6.691,41.004 -6.062,14.734 -16.134,26.829 -29.044,36.568 -13.362,10.08 -28.812,14.549 -44.737,17.983 -2.233,0.481 -4.646,0.163 -6.977,0.15 -1.459,-0.008 -2.697,0.169 -2.782,2.009 -0.667,0 -1.333,-0.001 -2,-0.001 -1.018,-1.596 -2.636,-0.794 -4.001,-1.001 10e-4,-0.999 10e-4,-1.997 0.002,-2.996 1.333,-0.001 2.666,-0.001 3.999,-0.002 1.689,1.737 2.61,1.168 3.001,-0.998 1.333,0 2.666,-0.001 3.999,-0.001 0.963,1.432 2.284,0.989 3.589,0.7 12.132,-2.685 23.898,-6.084 34.924,-12.27 9.6,-5.385 17.396,-12.472 24.566,-20.563 5.69,-6.421 9.409,-13.906 12.926,-21.653 7.947,-17.509 9.196,-35.464 3.592,-53.655 -3.322,-10.785 -8.947,-20.619 -16.111,-29.458 -1.417,-1.749 -3.213,-2.853 -5.484,-3.102 -0.667,-1 -1.334,-2 -2.001,-3 -0.586,-4.011 -4.588,-4.394 -6.927,-6.545 -10.37,-9.541 -23.147,-13.958 -36.498,-17.046 -2.778,-0.643 -5.845,-1.37 -8.575,0.59 -1,0 -1.999,0 -2.999,0 -1.847,-3.745 -4.48,-1.977 -7.001,-0.998 -3,0 -5.999,0 -8.999,0 -2.336,-10e-4 -4.671,-0.002 -7.005,-0.003 z"
         id="path3992" />
      <path
         style="fill:#addbf5;fill-rule:evenodd"
         inkscape:connector-curvature="0"
         clip-rule="evenodd"
         d="m 302.371,239.471 c -6.351,2.764 -12.297,6.335 -18.727,8.985 -7.592,3.13 -15.377,4.815 -23.527,4.999 -3.656,0.082 -7.314,-0.011 -10.972,0.021 -1.462,0.013 -2.688,-0.178 -2.778,-2.006 5.816,-0.021 11.689,0.465 17.439,-0.169 11.824,-1.305 22.654,-5.817 33.006,-11.548 1.391,-0.77 2.6,-1.488 2.558,-3.284 0.333,-0.001 0.666,-0.001 0.999,-0.001 1.353,0.02 2.02,-0.646 2,-2 0.333,0 0.667,0 1,0 1.95,-0.049 2.949,-1.05 3.001,-2.999 1.332,-0.001 2.665,-0.002 3.997,-0.003 l 0.002,0.003 c -0.332,0.667 -0.665,1.335 -0.997,2.002 0,0.333 -0.001,0.665 -0.002,0.998 -3.208,0.443 -5.379,2.337 -6.999,5.002 z"
         id="path3994" />
      <path
         style="fill:#addbf5;fill-rule:evenodd"
         inkscape:connector-curvature="0"
         clip-rule="evenodd"
         d="m 306.369,51.467 c 0,0.335 0,0.67 0,1.005 -0.043,1.396 -1.018,2.511 -2.104,1.868 -2.916,-1.727 -7.148,-1.079 -8.899,-4.869 0.001,-0.334 0.001,-0.667 0.002,-1.001 1,0 2,0 3,0 0.667,0.333 1.333,0.667 2,1.001 0.151,2.881 2.062,0.48 3,0.999 0.679,1.299 1.914,0.926 3.001,0.997 z"
         id="path3996" />
      <path
         style="fill:#addbf5;fill-rule:evenodd"
         inkscape:connector-curvature="0"
         clip-rule="evenodd"
         d="m 322.365,226.461 c -3.014,-0.72 -5.236,1.709 -7.993,2.011 l -0.006,-0.006 c -0.146,-2.695 1.001,-4.802 3.727,-4.855 2.532,-0.051 4.784,-1.263 7.276,-1.145 0,0.334 10e-4,0.668 10e-4,1.002 -1.248,0.75 -3.037,0.958 -3.005,2.993 z"
         id="path3998" />
      <path
         style="fill:#a7d9f4;fill-rule:evenodd"
         inkscape:connector-curvature="0"
         clip-rule="evenodd"
         d="m 322.365,226.461 c -0.032,-2.035 1.757,-2.243 3.005,-2.993 0.666,0 1.332,-10e-4 1.998,-10e-4 1.365,0.207 2.983,-0.595 4.001,1.001 -2.762,1.746 -5.838,2.075 -9.004,1.993 z"
         id="path4000" />
      <path
         style="fill:#a7d9f4;fill-rule:evenodd"
         inkscape:connector-curvature="0"
         clip-rule="evenodd"
         d="m 302.371,239.471 c 1.62,-2.665 3.791,-4.559 6.999,-5.001 -1.623,2.66 -3.452,5.033 -6.999,5.001 z"
         id="path4002" />
      <path
         style="fill:#addbf5;fill-rule:evenodd"
         inkscape:connector-curvature="0"
         clip-rule="evenodd"
         d="m 314.372,228.472 c -0.073,1.086 0.298,2.321 -1.003,2.997 -1,0 -2,0.001 -3,0.001 l -0.002,-0.003 c 0.087,-2.661 1.836,-3.107 3.999,-3.001 l 0.006,0.006 z"
         id="path4004" />
      <path
         style="fill:#a7d9f4;fill-rule:evenodd"
         inkscape:connector-curvature="0"
         clip-rule="evenodd"
         d="m 310.369,231.47 c 1,0 2,-0.001 3,-0.001 -0.719,1.892 -2.281,2.102 -3.997,2.003 0.332,-0.667 0.665,-1.335 0.997,-2.002 z"
         id="path4006" />
      <path
         style="fill:#a7d9f4;fill-rule:evenodd"
         inkscape:connector-curvature="0"
         clip-rule="evenodd"
         d="m 298.368,48.47 c -1,0 -2,0 -3,0 -1.812,0.291 -2.185,-2.296 -3.999,-2 -0.334,-10e-4 -0.666,-0.002 -0.999,-0.002 -0.616,-1.033 -0.825,-2.339 -2,-3 -0.052,-1.949 -1.051,-2.95 -3.001,-2.999 -0.666,-0.667 -1.334,-1.333 -2,-2 -0.875,-1.61 -1.942,-2.966 -4,-3 -0.333,0 -0.666,-10e-4 -0.999,-10e-4 -0.051,-1.949 -1.051,-2.95 -3.001,-2.999 -0.333,0 -0.666,-10e-4 -0.999,-10e-4 -0.12,-0.472 -0.083,-1.187 -0.382,-1.38 -8.752,-5.649 -18.083,-9.767 -28.619,-10.619 -1,0 -2,0 -3,0 -0.229,-0.233 -0.441,-0.651 -0.688,-0.672 -10.943,-0.898 -21.711,-0.248 -32.091,3.739 -0.952,0.365 -1.14,1.083 -1.223,1.932 -1,0 -2,0.001 -2.999,0.001 -1.732,-0.231 -3.145,0.635 -4.641,1.287 -4.439,1.936 -8.905,3.812 -13.36,5.712 0.419,-2.546 2.655,-3.304 4.501,-4.153 9.596,-4.416 19.034,-9.264 29.679,-10.887 11.091,-1.691 22.023,-1.587 32.916,1.541 13.562,3.894 25.08,11.106 34.855,21.089 2.902,2.961 6.667,4.939 9.05,8.412 z"
         id="path4008" />
      <path
         style="fill:#addbf5;fill-rule:evenodd"
         inkscape:connector-curvature="0"
         clip-rule="evenodd"
         d="m 187.368,32.468 c 4.455,-1.899 8.92,-3.776 13.36,-5.712 1.496,-0.652 2.909,-1.519 4.641,-1.287 -0.081,0.837 -0.211,1.672 -1.201,1.902 -2.896,0.677 -5.289,2.518 -8.124,3.427 -1.8,0.577 -4.386,0.869 -4.676,3.67 -2.421,-0.281 -4.709,0.367 -7,1 0,-0.668 0,-1.335 0.001,-2.002 1.087,-0.07 2.322,0.304 2.999,-0.998 z"
         id="path4010" />
      <path
         style="fill:#b5dff6;fill-rule:evenodd"
         inkscape:connector-curvature="0"
         clip-rule="evenodd"
         d="m 314.366,228.466 c -2.163,-0.106 -3.912,0.34 -3.999,3.001 -1.332,10e-4 -2.665,0.002 -3.997,0.003 -1.951,0.048 -2.951,1.048 -3.001,2.999 -0.333,0 -0.667,0 -1,0 -1.353,-0.02 -2.02,0.646 -2,2 -0.333,0 -0.666,0 -0.999,0.001 -1.575,0.017 -2.821,0.868 -4.076,1.651 -12.024,7.501 -25.082,11.4 -39.288,11.352 -5.961,-0.021 -11.922,-0.03 -17.883,0.015 -1.535,0.012 -3.528,-0.612 -3.754,1.98 -1.332,0.002 -2.664,0.003 -3.996,0.005 -2.123,-0.397 -3.994,0.72 -6.005,0.995 -0.017,-2.634 2.185,-3.039 3.927,-3.879 7.275,-3.507 15.082,-2.924 22.842,-3.196 10.553,-0.37 21.081,-1.478 30.883,-5.822 9.512,-4.216 18.759,-8.994 27.237,-15.082 6.659,-4.781 13.816,-7.409 22.112,-6.019 0,0.666 0,1.333 0,1.999 -1.333,0.001 -2.666,0.001 -3.999,0.002 -1.353,-0.022 -2.02,0.643 -2.001,1.995 -2.492,-0.118 -4.744,1.094 -7.276,1.145 -2.726,0.053 -3.872,2.16 -3.727,4.855 z"
         id="path4012" />
      <path
         style="fill:#b1ddf5;fill-rule:evenodd"
         inkscape:connector-curvature="0"
         clip-rule="evenodd"
         d="m 234.369,251.468 c 0.226,-2.593 2.219,-1.969 3.754,-1.98 5.961,-0.045 11.922,-0.036 17.883,-0.015 14.206,0.049 27.264,-3.851 39.288,-11.352 1.255,-0.783 2.501,-1.635 4.076,-1.651 0.042,1.796 -1.167,2.515 -2.558,3.284 -10.352,5.73 -21.182,10.243 -33.006,11.548 -5.75,0.634 -11.623,0.147 -17.439,0.169 -4,-0.001 -7.998,-0.002 -11.998,-0.003 z"
         id="path4014" />
      <path
         style="fill:#b1ddf5;fill-rule:evenodd"
         inkscape:connector-curvature="0"
         clip-rule="evenodd"
         d="m 224.368,252.468 c 2.011,-0.275 3.882,-1.393 6.005,-0.995 -1.01,0.77 0.459,3.198 -2.004,2.996 -0.334,0.333 -0.667,0.666 -1,0.999 -0.829,0.01 -1.612,0.11 -2,1.001 -1,0 -2,0.001 -2.999,0.001 0,-1 0,-2 0,-3 0.666,-0.334 1.332,-0.668 1.998,-1.002 z"
         id="path4016" />
      <path
         style="fill:#addbf5;fill-rule:evenodd"
         inkscape:connector-curvature="0"
         clip-rule="evenodd"
         d="m 227.369,255.468 c 0.333,-0.333 0.666,-0.666 1,-0.999 -0.334,0.333 -0.667,0.666 -1,0.999 z"
         id="path4018" />
      <path
         style="fill:#b5dff6;fill-rule:evenodd"
         inkscape:connector-curvature="0"
         clip-rule="evenodd"
         d="m 184.368,35.468 c 2.291,-0.633 4.579,-1.281 7,-1 2.78,-1.046 5.591,-2.019 8.335,-3.151 14.578,-6.014 29.444,-9.571 45.421,-6.927 11.889,1.967 22.357,6.858 32.24,13.479 2.711,1.815 4.543,4.884 8.004,5.6 0.333,0 0.666,0 0.999,0 0.087,2.665 1.836,3.11 4.002,2.999 0.333,0 0.665,10e-4 0.999,0.002 -0.397,3.305 1.863,3.067 3.997,3.001 1.751,3.79 5.983,3.143 8.899,4.869 1.086,0.643 2.061,-0.472 2.104,-1.868 0.667,0 1.333,0 2,0 1.019,1.594 2.635,0.793 4,0.998 3.291,1.982 6.789,0.896 10.212,0.617 0.645,-0.053 0.68,-0.99 0.789,-1.617 3,0 5.999,0 8.999,0 2.1,1.975 4.68,0.58 7.001,0.998 1,0 1.999,0 2.999,0 0.754,1.235 1.996,1.046 3.126,0.985 4.722,-0.251 9.23,1.233 13.541,2.564 9.505,2.935 18.313,7.469 26.267,13.657 2.79,2.171 5.29,5.063 9.066,5.794 0.667,1 1.334,2 2.001,3 -0.014,1.057 0.364,1.946 1.16,2.646 7.422,6.521 11.666,15.146 15.596,23.915 3.882,8.664 5.991,17.804 6.237,27.324 0.341,13.242 -4.045,25.347 -9.541,37.028 -5.735,12.188 -14.729,21.839 -25.329,30.038 -9.021,6.978 -19.32,11.334 -30.023,14.96 -5.276,1.788 -10.966,1.826 -16.101,4.09 -1.333,0 -2.666,0.001 -3.999,0.001 -0.334,-0.335 -0.668,-0.669 -1.002,-1.004 3.838,-1.758 8.012,-2.494 11.988,-3.857 9.403,-3.224 18.743,-6.355 27.506,-11.254 14.845,-8.298 25.638,-20.328 33.527,-35.08 7.256,-13.567 9.251,-28.351 7.801,-43.433 -0.705,-7.331 -2.657,-14.709 -6.382,-21.248 -5.836,-10.241 -12.478,-19.757 -21.895,-27.34 -7.203,-5.801 -14.777,-10.644 -23.365,-13.78 -7.763,-2.835 -15.805,-4.436 -24.135,-5.213 -7.812,-0.728 -15.441,-0.985 -23.23,0.057 -3.685,0.492 -7.525,0.194 -11.373,-0.46 -8.904,-1.514 -15.594,-7.082 -22.771,-11.649 -11.519,-7.328 -23.096,-14.42 -36.924,-16.267 -7.234,-0.967 -14.59,-1.076 -21.836,0.107 -11.121,1.816 -21.773,5.447 -32.548,8.625 -3.673,1.084 -7.43,2.146 -11.618,1.318 -7.649,-1.511 -14.103,-5.402 -20.805,-8.943 -6.303,-3.329 -12.688,-6.63 -19.593,-8.479 -10.71,-2.867 -21.732,-2.059 -32.667,-2.102 -1.331,-0.005 -2.599,0.238 -3.912,0.553 C 91.176,22.404 82.2,26.528 74.06,32.952 63.422,41.346 56.375,52.086 51.285,64.36 c -5.322,12.835 -5.171,26.508 -5.844,40.014 -0.303,6.08 -0.454,11.855 -3.139,17.715 -3.181,6.944 -6.601,13.713 -10.472,20.254 -8.205,13.863 -13.259,28.289 -10.557,44.818 2.114,12.93 8.036,23.916 16.746,33.148 7.423,7.868 16.843,13.179 27.407,16.376 6.167,1.867 12.306,3.836 18.516,5.57 1.849,0.517 4.125,0.527 4.424,3.213 -4.288,-0.963 -8.558,-2.041 -13,-2 -0.667,0 -1.333,0 -1.999,0 -0.475,-0.82 -1.277,-0.878 -2.115,-1.043 -15.429,-3.034 -28.712,-9.964 -39.23,-21.818 -5.3,-5.973 -10.128,-12.261 -12.53,-20.056 -2.984,-9.684 -5.118,-19.31 -3.292,-29.692 1.479,-8.412 4.013,-16.236 7.785,-23.839 2.502,-5.043 6.953,-8.926 8.383,-14.553 0.537,-1.087 2.276,-1.371 2,-3 2.159,-0.005 2.002,-1.554 2,-3 0.662,-0.073 1.41,-0.092 1.762,-0.739 2.219,-4.086 4.193,-8.137 4.318,-13.052 0.326,-12.735 -0.683,-25.428 1.65,-38.22 2.704,-14.826 9.613,-27.273 19.275,-37.99 8.345,-9.257 19.155,-15.57 31.479,-19.077 14.116,-4.018 28.054,-3.932 41.995,0.368 10.529,3.248 20.016,8.733 29.409,14.325 1.706,1.015 3.259,1.469 5.113,1.385 2.708,0.891 4.574,4.032 8.003,2.996 0.666,0 1.331,0 1.996,0 1.687,1.719 1.791,0.254 2.001,-0.995 0.333,10e-4 0.666,0 0.999,0 z"
         id="path4020" />
      <path
         style="fill:#b1ddf5;fill-rule:evenodd"
         inkscape:connector-curvature="0"
         clip-rule="evenodd"
         d="m 171.369,33.469 c -1.854,0.084 -3.407,-0.37 -5.113,-1.385 -9.393,-5.592 -18.88,-11.077 -29.409,-14.325 -13.94,-4.3 -27.878,-4.386 -41.995,-0.368 -12.323,3.507 -23.133,9.82 -31.479,19.077 -9.66,10.717 -16.57,23.164 -19.273,37.99 -2.333,12.792 -1.324,25.484 -1.65,38.22 -0.125,4.915 -2.1,8.966 -4.318,13.052 -0.352,0.647 -1.1,0.666 -1.762,0.739 h 0 c 0,-1 0,-2 0,-3 0.853,-1.593 2.519,-2.859 2.003,-5 2.167,-0.39 2.733,-1.312 0.998,-3 0,-1.333 0,-2.667 0,-4 1.667,-1.256 0.943,-3.064 0.965,-4.632 0.083,-5.821 0.023,-11.645 0.035,-17.467 0.027,-13.438 2.502,-26.41 9.186,-38.118 10.014,-17.543 23.839,-30.583 44.027,-36.098 7.729,-2.112 15.451,-3.943 23.354,-3.545 9.391,0.474 18.66,2.327 27.32,6.314 7.061,3.251 14.007,6.723 20.434,11.151 1.374,0.946 2.916,1.61 4.677,1.394 0.829,0.01 1.612,0.109 1.999,1.001 0.001,0.667 0.001,1.334 0.001,2 z"
         id="path4022" />
      <path
         style="fill:#b1ddf5;fill-rule:evenodd"
         inkscape:connector-curvature="0"
         clip-rule="evenodd"
         d="m 183.369,35.47 c -0.21,1.249 -0.314,2.714 -2.001,0.995 0.39,-0.89 1.173,-0.989 2.001,-0.995 z"
         id="path4024" />
      <path
         style="fill:#b1ddf5;fill-rule:evenodd"
         inkscape:connector-curvature="0"
         clip-rule="evenodd"
         d="m 32.369,132.469 c -1.43,5.627 -5.881,9.51 -8.383,14.553 -3.772,7.603 -6.306,15.427 -7.785,23.839 -1.826,10.383 0.309,20.009 3.292,29.692 2.402,7.795 7.23,14.083 12.53,20.056 10.519,11.854 23.802,18.784 39.23,21.818 0.838,0.165 1.64,0.223 2.115,1.043 -0.598,1.073 -1.627,1.118 -2.612,0.927 -14.277,-2.778 -27.187,-8.737 -37.558,-18.852 -9.439,-9.205 -16.384,-20.288 -18.789,-33.649 -2.305,-12.805 -1.329,-25.213 3.831,-37.33 3.2,-7.515 7.042,-14.554 12.071,-20.972 0.583,-0.74 1.197,-1.071 2.058,-1.125 z"
         id="path4026" />
      <path
         style="fill:#b1ddf5;fill-rule:evenodd"
         inkscape:connector-curvature="0"
         clip-rule="evenodd"
         d="m 36.37,126.469 c 0.002,1.446 0.159,2.995 -2,3 0,-0.667 -10e-4,-1.334 -10e-4,-2 h 0 c 0.667,-0.334 1.333,-0.667 2.001,-1 l 0,0 z"
         id="path4028" />
      <path
         style="fill:#addbf5;fill-rule:evenodd"
         inkscape:connector-curvature="0"
         clip-rule="evenodd"
         d="m 77.369,246.468 c 1.69,-1.736 2.611,-1.166 3.001,1 -1.088,-0.072 -2.324,0.303 -3.001,-1 z"
         id="path4030" />
      <path
         style="fill:#b1ddf5;fill-rule:evenodd"
         inkscape:connector-curvature="0"
         clip-rule="evenodd"
         d="m 104.369,265.469 c 0,-1 0,-2 0,-3 2.405,0.262 3.738,1.596 4,4 -1,0 -2,0 -3,0 -0.333,-0.333 -0.666,-0.667 -1,-1 z"
         id="path4032" />
      <path
         style="fill:#b5dff6;fill-rule:evenodd"
         inkscape:connector-curvature="0"
         clip-rule="evenodd"
         d="m 108.369,266.469 c -0.262,-2.404 -1.595,-3.738 -4,-4 -2.015,-1.71 -2.156,-4.981 -5.001,-5.999 0,-0.668 0.001,-1.336 0.002,-2.004 1.957,-0.091 2.753,1.642 4.089,2.545 4.721,3.193 7.776,8.588 12.68,11.112 8.99,4.628 17.21,10.597 27.719,12.652 12.275,2.401 24.13,2.914 36.022,-0.674 6.143,-1.854 12.038,-4.38 17.731,-7.556 5.298,-2.955 10.238,-6.255 13.87,-10.952 2.977,-3.85 6.512,-6.415 10.888,-8.124 0,1 0,2 0,3 -1.303,0.677 -0.929,1.912 -1,2.999 -0.335,0.666 -0.669,1.332 -1.003,1.998 -2.894,-0.006 -3.678,3.149 -5.998,4.002 -3.459,-0.085 -5.184,1.913 -6,5 -0.534,1.365 -1.534,2.032 -3,2 -2.318,0.176 -3.73,2.007 -5.554,3.075 -3.986,2.334 -7.604,5.329 -12,6.919 -9.396,3.398 -19.011,5.241 -29.105,5.088 -14.822,-0.226 -27.667,-5.487 -39.67,-13.745 -2.96,-2.037 -4.863,-5.509 -8.671,-6.337 -0.828,-0.008 -1.611,-0.109 -1.999,-0.999 z"
         id="path4034" />
      <path
         style="fill:#b1ddf5;fill-rule:evenodd"
         inkscape:connector-curvature="0"
         clip-rule="evenodd"
         d="m 110.369,267.469 c 3.808,0.828 5.711,4.3 8.671,6.337 12.002,8.258 24.848,13.52 39.67,13.745 10.094,0.153 19.71,-1.689 29.105,-5.088 4.396,-1.59 8.014,-4.585 12,-6.919 1.824,-1.068 3.236,-2.899 5.554,-3.075 0.072,1.507 -0.778,2.569 -1.908,3.295 -4.305,2.764 -8.379,6.193 -13.07,7.984 -9.505,3.627 -19.271,6.912 -29.666,6.684 -16.009,-0.352 -30.312,-5.839 -43.082,-15.307 -2.799,-2.076 -6.586,-3.471 -7.274,-7.656 z"
         id="path4036" />
      <path
         style="fill:#b1ddf5;fill-rule:evenodd"
         inkscape:connector-curvature="0"
         clip-rule="evenodd"
         d="m 208.369,270.469 c 0.816,-3.087 2.541,-5.085 6,-5 -1.607,2.137 -2.988,4.548 -6,5 z"
         id="path4038" />
      <path
         style="fill:#c0e4f7;fill-rule:evenodd"
         inkscape:connector-curvature="0"
         clip-rule="evenodd"
         d="m 222.37,253.47 c -4.376,1.709 -7.912,4.274 -10.888,8.124 -3.632,4.697 -8.572,7.997 -13.87,10.952 -5.694,3.176 -11.589,5.702 -17.731,7.556 -11.892,3.588 -23.747,3.075 -36.022,0.674 -10.509,-2.056 -18.729,-8.024 -27.719,-12.652 -4.904,-2.524 -7.958,-7.919 -12.68,-11.112 -1.336,-0.903 -2.133,-2.636 -4.089,-2.545 -2.994,-3.823 -7.161,-6.211 -11.003,-8.996 -0.299,-2.686 -2.575,-2.696 -4.424,-3.213 -6.21,-1.734 -12.349,-3.703 -18.516,-5.57 -10.563,-3.197 -19.983,-8.508 -27.407,-16.376 -8.709,-9.232 -14.632,-20.219 -16.746,-33.148 -2.702,-16.529 2.352,-30.955 10.557,-44.818 3.871,-6.541 7.291,-13.31 10.472,-20.254 2.685,-5.859 2.836,-11.635 3.139,-17.715 0.673,-13.506 0.522,-27.179 5.844,-40.014 5.09,-12.274 12.137,-23.015 22.775,-31.408 8.14,-6.424 17.116,-10.548 27.075,-12.931 1.313,-0.314 2.581,-0.558 3.912,-0.553 10.934,0.043 21.957,-0.766 32.667,2.102 6.905,1.849 13.291,5.149 19.593,8.479 6.702,3.541 13.156,7.433 20.805,8.943 4.188,0.828 7.944,-0.234 11.618,-1.318 10.775,-3.178 21.428,-6.809 32.548,-8.625 7.246,-1.184 14.602,-1.074 21.836,-0.107 13.828,1.847 25.405,8.938 36.924,16.267 7.178,4.567 13.867,10.136 22.771,11.649 3.848,0.654 7.688,0.952 11.373,0.46 7.789,-1.042 15.419,-0.784 23.23,-0.057 8.33,0.777 16.372,2.378 24.135,5.213 8.588,3.137 16.162,7.979 23.365,13.78 9.417,7.583 16.059,17.099 21.895,27.34 3.725,6.539 5.677,13.917 6.382,21.248 1.45,15.082 -0.545,29.865 -7.801,43.433 -7.89,14.752 -18.683,26.782 -33.527,35.08 -8.763,4.898 -18.103,8.03 -27.506,11.254 -3.977,1.363 -8.15,2.1 -11.988,3.857 -0.666,0.001 -1.333,0.002 -1.999,0.003 -8.296,-1.391 -15.453,1.237 -22.112,6.019 -8.479,6.088 -17.726,10.866 -27.237,15.082 -9.802,4.345 -20.33,5.452 -30.883,5.822 -7.76,0.272 -15.566,-0.311 -22.842,3.196 -1.742,0.84 -3.943,1.245 -3.927,3.879 -0.667,0.332 -1.333,0.666 -1.999,1 z M 405.3,132.465 c -0.187,-0.589 -0.373,-1.177 -0.561,-1.766 2.584,-0.136 2.865,-1.911 2.592,-3.871 -0.387,-2.771 -0.659,-5.604 -1.477,-8.258 C 400.83,102.254 391.461,88.833 377.751,78.738 362.626,67.601 345.262,62.881 326.634,62.485 c -5.159,-0.109 -10.332,0.177 -15.483,-0.062 -8.047,-0.373 -15.71,-2.558 -22.677,-6.539 -9.471,-5.411 -18.51,-11.5 -28.417,-16.237 -12.591,-6.021 -25.794,-5.935 -38.979,-4.734 -7.971,0.726 -15.783,3.382 -23.492,5.895 -4.379,1.427 -8.892,2.392 -13.553,2.699 -12.224,0.805 -22.683,-4.587 -32.822,-10.018 -9.12,-4.885 -18.677,-7.863 -28.68,-8.848 -12.867,-1.266 -25.236,1.036 -36.809,7.57 -14.058,7.938 -23.602,19.436 -29.249,34.35 -5.218,13.779 -6.73,28.204 -7.08,42.8 -0.044,1.857 -0.461,3.539 -1.024,5.309 -1.44,4.532 -3.568,8.961 -2.946,13.94 -0.07,0.622 -0.14,1.243 -0.21,1.864 -2.396,-0.506 -3.33,1.42 -4.1,2.899 -4.97,9.555 -10.405,18.916 -13.349,29.385 -2.432,8.645 -2.238,17.608 -0.825,26.189 1.394,8.467 5.219,16.501 10.881,23.192 6.247,7.382 13.247,14.12 22.252,18.053 7.577,3.309 15.411,6.04 23.356,8.407 8.46,2.521 15.363,7.665 21.893,13.348 8.256,7.184 16.542,14.191 26.635,18.896 12.101,5.642 24.303,9.021 37.876,6.767 8.331,-1.385 15.894,-4.241 23.19,-8.247 9.927,-5.449 18.149,-13.271 27.47,-19.566 4.479,-3.023 9.408,-5.396 14.551,-6.05 4.867,-0.618 9.836,-1.184 14.805,-1.451 6.545,-0.353 13.148,-0.796 19.623,-2.322 11.464,-2.703 21.718,-8.073 31.804,-13.864 3.447,-1.979 6.573,-4.832 10.254,-6.02 6.65,-2.145 13.18,-4.626 19.828,-6.762 11.461,-3.683 23.456,-5.778 34.104,-11.865 12.247,-7 23.191,-15.432 30.852,-27.503 2.281,-3.595 4.831,-7.184 4.973,-11.733 2.151,-2.002 2.51,-5.183 4.839,-7.163 0.795,-0.677 -0.004,-2.135 -0.954,-2.936 1.352,-5.413 2.45,-10.855 2.213,-16.486 -0.066,-1.522 0.099,-3.09 -2.084,-3.177 z"
         id="path4040" />
      <path
         style="fill:#addbf5;fill-rule:evenodd"
         inkscape:connector-curvature="0"
         clip-rule="evenodd"
         d="m 36.369,126.469 c -0.667,0.333 -1.333,0.666 -2,1 -0.101,-1.718 0.109,-3.279 2,-4 0,1 0,2 0,3 z"
         id="path4042" />
      <path
         style="fill:#b1ddf5;fill-rule:evenodd"
         inkscape:connector-curvature="0"
         clip-rule="evenodd"
         d="m 323.37,52.47 c -0.109,0.627 -0.145,1.564 -0.789,1.617 -3.423,0.279 -6.921,1.365 -10.212,-0.617 0,-0.334 0,-0.668 0,-1.002 1.333,0 2.665,0 3.998,-0.001 2.334,0.001 4.669,0.002 7.003,0.003 z"
         id="path4044" />
      <path
         style="fill:#addbf5;fill-rule:evenodd"
         inkscape:connector-curvature="0"
         clip-rule="evenodd"
         d="m 312.369,52.468 c 0,0.334 0,0.668 0,1.002 -1.365,-0.205 -2.981,0.596 -4,-0.998 1.332,-1.491 2.665,-1.489 4,-0.004 z"
         id="path4046" />
      <path
         style="fill:#b1ddf5;fill-rule:evenodd"
         inkscape:connector-curvature="0"
         clip-rule="evenodd"
         d="m 338.369,219.47 c 5.135,-2.264 10.824,-2.302 16.101,-4.09 10.703,-3.626 21.003,-7.982 30.023,-14.96 10.601,-8.199 19.594,-17.85 25.329,-30.038 5.496,-11.682 9.882,-23.786 9.541,-37.028 -0.246,-9.521 -2.355,-18.66 -6.237,-27.324 -3.93,-8.77 -8.174,-17.395 -15.596,-23.915 -0.796,-0.699 -1.174,-1.589 -1.16,-2.646 2.271,0.249 4.067,1.353 5.484,3.102 7.164,8.839 12.789,18.673 16.111,29.458 5.604,18.191 4.355,36.146 -3.592,53.655 -3.517,7.747 -7.235,15.232 -12.926,21.653 -7.17,8.092 -14.967,15.179 -24.566,20.563 -11.025,6.186 -22.792,9.585 -34.924,12.27 -1.304,0.289 -2.625,0.731 -3.588,-0.7 z"
         id="path4048" />
      <path
         style="fill:#b1ddf5;fill-rule:evenodd"
         inkscape:connector-curvature="0"
         clip-rule="evenodd"
         d="m 394.369,76.469 c -3.776,-0.73 -6.276,-3.623 -9.066,-5.794 -7.953,-6.188 -16.762,-10.723 -26.267,-13.657 -4.311,-1.331 -8.819,-2.815 -13.541,-2.564 -1.13,0.061 -2.372,0.25 -3.126,-0.985 2.73,-1.96 5.797,-1.232 8.575,-0.59 13.351,3.088 26.128,7.505 36.498,17.046 2.339,2.15 6.341,2.533 6.927,6.544 z"
         id="path4050" />
      <path
         style="fill:#b1ddf5;fill-rule:evenodd"
         inkscape:connector-curvature="0"
         clip-rule="evenodd"
         d="m 339.37,53.468 c -2.321,-0.418 -4.901,0.977 -7.001,-0.998 2.521,-0.979 5.154,-2.747 7.001,0.998 z"
         id="path4052" />
      <path
         style="fill:#b1ddf5;fill-rule:evenodd"
         inkscape:connector-curvature="0"
         clip-rule="evenodd"
         d="m 331.369,218.47 c 0.666,-0.001 1.333,-0.002 1.999,-0.003 0.334,0.335 0.668,0.669 1.002,1.004 -0.391,2.166 -1.312,2.735 -3.001,0.998 0,-0.666 0,-1.333 0,-1.999 z"
         id="path4054" />
      <path
         style="fill:#b1ddf5;fill-rule:evenodd"
         inkscape:connector-curvature="0"
         clip-rule="evenodd"
         d="m 325.369,222.466 c -0.019,-1.353 0.648,-2.018 2.001,-1.995 -10e-4,0.999 -10e-4,1.997 -0.002,2.996 -0.666,0 -1.332,10e-4 -1.998,10e-4 0,-0.334 -10e-4,-0.668 -10e-4,-1.002 z"
         id="path4056" />
      <path
         style="fill:#b1ddf5;fill-rule:evenodd"
         inkscape:connector-curvature="0"
         clip-rule="evenodd"
         d="m 303.369,234.469 c 0.05,-1.951 1.05,-2.951 3.001,-2.999 -0.052,1.949 -1.051,2.95 -3.001,2.999 z"
         id="path4058" />
      <path
         style="fill:#b1ddf5;fill-rule:evenodd"
         inkscape:connector-curvature="0"
         clip-rule="evenodd"
         d="m 300.369,236.469 c -0.02,-1.354 0.647,-2.02 2,-2 0.02,1.353 -0.647,2.019 -2,2 z"
         id="path4060" />
      <path
         style="fill:#b1ddf5;fill-rule:evenodd"
         inkscape:connector-curvature="0"
         clip-rule="evenodd"
         d="m 295.366,49.471 c -2.134,0.066 -4.395,0.304 -3.997,-3.001 1.814,-0.296 2.188,2.291 3.999,2 -10e-4,0.334 -10e-4,0.667 -0.002,1.001 z"
         id="path4062" />
      <path
         style="fill:#b1ddf5;fill-rule:evenodd"
         inkscape:connector-curvature="0"
         clip-rule="evenodd"
         d="m 285.369,43.469 c -3.461,-0.716 -5.293,-3.784 -8.004,-5.6 -9.883,-6.621 -20.352,-11.513 -32.24,-13.479 -15.978,-2.645 -30.843,0.913 -45.421,6.927 -2.745,1.133 -5.555,2.105 -8.335,3.151 0.291,-2.801 2.876,-3.093 4.676,-3.67 2.835,-0.909 5.228,-2.75 8.124,-3.427 0.99,-0.23 1.12,-1.065 1.201,-1.902 1,0 2,-0.001 2.999,-0.001 10.58,-3.079 21.342,-4.691 32.39,-4.044 0.698,0.041 1.221,-0.389 1.611,-0.955 1,0 2,0 3,0 0.046,1.461 0.889,1.838 2.246,2.033 4.085,0.588 7.934,1.987 11.83,3.367 5.166,1.831 9.584,5.249 14.925,6.599 0.333,0 0.666,10e-4 0.999,10e-4 0.05,1.951 1.05,2.951 3.001,2.999 0.333,0 0.666,10e-4 0.999,10e-4 0.084,2.665 1.835,3.108 4,3 0.666,0.667 1.334,1.333 2,2 -10e-4,1 -10e-4,2 -10e-4,3 z"
         id="path4064" />
      <path
         style="fill:#addbf5;fill-rule:evenodd"
         inkscape:connector-curvature="0"
         clip-rule="evenodd"
         d="m 242.369,20.469 c -0.391,0.566 -0.913,0.996 -1.611,0.955 -11.048,-0.647 -21.81,0.965 -32.39,4.044 0.083,-0.849 0.271,-1.566 1.223,-1.932 10.38,-3.987 21.147,-4.638 32.091,-3.739 0.246,0.02 0.459,0.438 0.687,0.672 z"
         id="path4066" />
      <path
         style="fill:#addbf5;fill-rule:evenodd"
         inkscape:connector-curvature="0"
         clip-rule="evenodd"
         d="m 274.37,32.468 c -5.341,-1.35 -9.759,-4.768 -14.925,-6.599 -3.896,-1.38 -7.745,-2.779 -11.83,-3.367 -1.357,-0.195 -2.2,-0.572 -2.246,-2.033 10.536,0.853 19.867,4.97 28.619,10.619 0.299,0.193 0.262,0.908 0.382,1.38 z"
         id="path4068" />
      <path
         style="fill:#b1ddf5;fill-rule:evenodd"
         inkscape:connector-curvature="0"
         clip-rule="evenodd"
         d="m 290.37,46.468 c -2.166,0.111 -3.915,-0.334 -4.002,-2.999 0.667,0 1.335,0 2.002,-10e-4 1.175,0.661 1.384,1.967 2,3 z"
         id="path4070" />
      <path
         style="fill:#addbf5;fill-rule:evenodd"
         inkscape:connector-curvature="0"
         clip-rule="evenodd"
         d="m 288.37,43.468 c -0.667,10e-4 -1.335,10e-4 -2.002,10e-4 -0.333,0 -0.666,0 -0.999,0 0,-1 0,-2 0,-3 1.95,0.049 2.949,1.05 3.001,2.999 z"
         id="path4072" />
      <path
         style="fill:#addbf5;fill-rule:evenodd"
         inkscape:connector-curvature="0"
         clip-rule="evenodd"
         d="m 283.369,38.469 c -2.165,0.108 -3.916,-0.335 -4,-3 2.058,0.034 3.125,1.389 4,3 z"
         id="path4074" />
      <path
         style="fill:#addbf5;fill-rule:evenodd"
         inkscape:connector-curvature="0"
         clip-rule="evenodd"
         d="m 278.37,35.468 c -1.951,-0.048 -2.951,-1.048 -3.001,-2.999 1.95,0.049 2.95,1.05 3.001,2.999 z"
         id="path4076" />
      <path
         style="fill:#c8e7f8;fill-rule:evenodd"
         inkscape:connector-curvature="0"
         clip-rule="evenodd"
         d="m 401.285,162.227 c -0.142,4.55 -2.691,8.139 -4.973,11.733 -7.66,12.071 -18.604,20.503 -30.852,27.503 -10.648,6.087 -22.644,8.183 -34.104,11.865 -6.648,2.136 -13.178,4.617 -19.828,6.762 -3.681,1.188 -6.807,4.041 -10.254,6.02 -10.086,5.791 -20.34,11.161 -31.804,13.864 -6.475,1.526 -13.078,1.97 -19.623,2.322 -4.969,0.268 -9.938,0.833 -14.805,1.451 -5.143,0.653 -10.072,3.026 -14.551,6.05 -9.32,6.295 -17.542,14.117 -27.47,19.566 -7.297,4.006 -14.859,6.862 -23.19,8.247 -13.573,2.255 -25.775,-1.125 -37.876,-6.767 -10.092,-4.705 -18.379,-11.713 -26.635,-18.896 -6.53,-5.683 -13.433,-10.826 -21.893,-13.348 -7.945,-2.367 -15.779,-5.099 -23.356,-8.407 -9.005,-3.933 -16.005,-10.671 -22.252,-18.053 -5.663,-6.691 -9.487,-14.726 -10.881,-23.192 -1.413,-8.581 -1.606,-17.545 0.825,-26.189 2.944,-10.469 8.379,-19.83 13.349,-29.385 0.77,-1.479 1.704,-3.405 4.1,-2.899 0.089,1.647 0.179,3.294 0.269,4.941 -3.782,3.161 -4.651,7.965 -6.535,12.114 -5.382,11.852 -9.129,23.933 -6.736,37.429 2.016,11.363 6.33,21.409 14.589,29.226 8.206,7.766 17.64,13.943 28.635,17.445 14.549,4.636 27.344,12.329 38.969,22.25 8.479,7.236 17.952,12.889 28.841,16.139 8.628,2.574 17.407,3.358 26.09,2.173 13.927,-1.902 26.139,-8.361 36.908,-17.208 12.183,-10.008 25.774,-15.806 41.622,-16.64 5.56,-0.292 11.178,-1.128 16.671,-2.144 11.689,-2.16 22.579,-6.767 32.759,-12.786 12.66,-7.485 26.222,-12.451 40.408,-15.981 19.165,-4.77 35.771,-14.051 48.904,-28.901 3.118,-3.525 7.557,-6.864 6.648,-12.71 2.91,-0.68 5.019,-3.145 8.031,-3.594 z"
         id="path4078" />
      <path
         style="fill:#c8e7f8;fill-rule:evenodd"
         inkscape:connector-curvature="0"
         clip-rule="evenodd"
         d="m 45.423,128.609 c -0.622,-4.979 1.506,-9.408 2.946,-13.94 0.562,-1.77 0.979,-3.451 1.024,-5.309 0.35,-14.596 1.862,-29.021 7.08,-42.8 5.647,-14.914 15.191,-26.411 29.249,-34.35 11.572,-6.534 23.941,-8.836 36.809,-7.57 10.003,0.984 19.56,3.963 28.68,8.848 10.14,5.431 20.598,10.822 32.822,10.018 4.661,-0.308 9.174,-1.272 13.553,-2.699 7.709,-2.513 15.521,-5.169 23.492,-5.895 13.186,-1.2 26.389,-1.287 38.979,4.734 9.907,4.737 18.946,10.826 28.417,16.237 6.967,3.981 14.63,6.166 22.677,6.539 5.151,0.239 10.324,-0.047 15.483,0.062 18.628,0.396 35.992,5.116 51.117,16.253 13.71,10.095 23.078,23.516 28.103,39.832 0.817,2.654 1.09,5.487 1.477,8.258 0.273,1.96 -0.008,3.735 -2.592,3.871 -1.162,-2.302 -2.324,-4.604 -3.485,-6.905 0.291,-3.339 0.105,-6.588 -1.124,-9.788 -5.191,-13.512 -14.088,-24.146 -25.425,-32.875 -7.596,-5.85 -16.29,-10.008 -25.379,-12.283 -9.197,-2.303 -18.84,-3.461 -28.443,-3.336 -12.508,0.163 -24.301,-2.239 -35.305,-8.393 -9.396,-5.255 -18.576,-10.888 -28.645,-14.925 -10.395,-4.169 -21.174,-5.67 -32.106,-4.493 -9.148,0.985 -18.18,3.241 -26.982,6.085 -5.571,1.799 -11.496,2.53 -17.046,2.292 -6.772,-0.291 -13.636,-1.964 -20.094,-4.835 -10.556,-4.694 -21.016,-9.855 -32.67,-11.368 -7.661,-0.994 -15.369,-1.28 -23.019,0.263 -13.669,2.759 -25.038,9.575 -33.918,20.213 -6.858,8.214 -11.455,17.604 -13.896,28.201 -1.709,7.424 -2.895,14.918 -3.574,22.413 -0.596,6.575 -2.216,13.026 -2.207,19.653 -1.999,2.665 -3.998,5.329 -5.998,7.992 z"
         id="path4080" />
      <path
         style="fill:#101112;fill-rule:evenodd"
         inkscape:connector-curvature="0"
         clip-rule="evenodd"
         d="m 401.254,123.794 c 1.161,2.302 2.323,4.604 3.485,6.905 0.188,0.589 0.374,1.177 0.561,1.766 -0.056,1.646 0.074,3.381 -1.933,4.11 -2.001,0.019 -4.002,0.037 -6.003,0.056 -2.667,-0.294 -5.335,-0.332 -8.002,-0.001 -4.581,-0.331 -9.155,-0.42 -13.926,0.119 0,2.896 -0.367,5.58 0.072,8.124 1.12,6.487 3.89,11.921 10.764,14.115 2.769,0.89 5.529,1.312 8.262,-0.126 4.124,-0.476 6.891,-2.807 8.74,-6.392 0.632,-0.114 1.264,-0.229 1.896,-0.343 0.95,0.801 1.749,2.259 0.954,2.936 -2.329,1.98 -2.688,5.161 -4.839,7.163 -3.012,0.449 -5.121,2.914 -8.029,3.594 -2.627,0.18 -5.254,0.36 -7.881,0.541 -1.924,-0.503 -3.848,-1.006 -5.772,-1.509 -1.705,-0.794 -3.41,-1.589 -5.115,-2.383 -1.831,-2.729 -3.662,-5.459 -5.494,-8.188 -3.103,-8.995 -2.886,-17.792 1.567,-26.337 2.192,-2.412 4.305,-4.907 7.037,-6.756 3.088,-1.519 6.465,-1.995 9.773,-2.72 1.001,0.265 2.001,0.27 3,-0.013 1.04,0.196 2.079,0.392 3.119,0.588 1.299,0.437 2.289,1.62 3.791,1.564 l -0.055,-0.06 c 0.158,0.573 0.495,0.904 1.129,0.832 0.966,0.807 1.932,1.611 2.899,2.415 z m -6.333,8.84 c 0.385,-6.31 -2.237,-10.022 -7.011,-10.399 -5.872,-0.464 -10.578,3.993 -11.166,10.399 6.068,0 12.146,0 18.177,0 z"
         id="path4082" />
      <path
         style="fill:#858080;fill-rule:evenodd"
         inkscape:connector-curvature="0"
         clip-rule="evenodd"
         d="m 45.423,128.609 c 2,-2.663 3.999,-5.327 5.998,-7.991 1.068,-0.091 2.226,0.145 3.047,-0.842 1.968,-0.444 3.936,-0.89 5.903,-1.335 3.029,0.013 5.955,0.707 8.887,1.354 1.44,1.204 3.684,1.478 4.265,3.679 0.295,1.764 0.577,3.53 0.888,5.292 0.458,2.598 -0.779,3.252 -3.077,2.72 -2.637,-3.729 -4.342,-8.501 -9.958,-8.896 -4.988,0.043 -8.126,1.9 -8.929,5.285 -0.855,3.606 0.615,6.137 4.93,8.483 2.713,1.022 5.418,2.069 8.319,2.455 3.667,1.88 7.233,3.878 9.123,7.829 1.559,5.898 0.554,11.2 -3.671,15.751 -2.312,1.165 -4.625,2.33 -6.938,3.495 -3.246,0.592 -6.5,0.622 -9.759,0.117 -2.212,-0.928 -4.425,-1.856 -6.637,-2.785 -0.792,-4.079 -2.002,-8.097 -2.105,-12.065 1.333,-1.17 2.412,-0.724 3.489,-0.354 1.263,3.209 2.441,6.465 5.022,8.934 0.738,1.463 2.133,2.058 3.55,2.492 4.516,1.387 9.369,-0.604 10.948,-4.41 1.676,-4.037 -0.288,-8.068 -5.046,-10.364 -1.346,-0.649 -2.723,-1.196 -4.234,-1.314 -2.686,-1.172 -5.371,-2.345 -8.057,-3.517 -1.294,-1.211 -2.588,-2.421 -3.882,-3.632 -1.596,-0.67 -0.406,-2.912 -2.017,-3.574 -0.089,-1.647 -0.179,-3.294 -0.269,-4.941 0.07,-0.622 0.141,-1.244 0.21,-1.866 z"
         id="path4084" />
      <path
         style="fill:#c8e7f8;fill-rule:evenodd"
         inkscape:connector-curvature="0"
         clip-rule="evenodd"
         d="m 403.367,136.575 c 2.007,-0.729 1.877,-2.464 1.933,-4.11 2.184,0.087 2.019,1.655 2.083,3.177 0.237,5.631 -0.861,11.073 -2.213,16.486 -0.632,0.114 -1.264,0.229 -1.896,0.343 -3.153,-0.736 -1.748,-2.976 -1.499,-4.746 0.523,-3.718 1.654,-7.348 1.592,-11.15 z"
         id="path4086" />
      <path
         style="fill:#ceeaf8;fill-rule:evenodd"
         inkscape:connector-curvature="0"
         clip-rule="evenodd"
         d="m 45.482,135.415 c 1.611,0.662 0.421,2.904 2.017,3.574 -0.583,4.83 -2.527,9.245 -4.247,13.718 -4.995,12.994 -6.841,25.926 -1.942,39.6 5.568,15.541 17.066,25.058 31.029,31.907 12.345,6.056 25.142,11.109 36.489,19.126 9.021,6.374 17.704,13.156 28.098,17.618 11.567,4.965 23.525,6.315 35.314,4.087 11.678,-2.208 22.449,-7.847 32.167,-15.076 10.35,-7.699 21.622,-13.36 34.504,-15.623 7.48,-1.314 15.057,-1.846 22.52,-3.097 13.037,-2.185 24.848,-7.994 36.564,-13.742 7.713,-3.783 15.279,-7.689 23.545,-10.27 13.404,-4.184 27.123,-7.686 39.134,-15.44 7.772,-5.019 15.522,-10.074 21.334,-17.483 1.835,-2.339 3.907,-4.599 3.366,-7.952 2.627,-0.181 5.254,-0.361 7.881,-0.541 0.908,5.846 -3.53,9.185 -6.648,12.71 -13.133,14.851 -29.739,24.132 -48.904,28.901 -14.187,3.53 -27.748,8.496 -40.408,15.981 -10.18,6.02 -21.069,10.626 -32.759,12.786 -5.493,1.016 -11.111,1.852 -16.671,2.144 -15.848,0.834 -29.439,6.632 -41.622,16.64 -10.769,8.847 -22.98,15.306 -36.908,17.208 -8.684,1.186 -17.462,0.401 -26.09,-2.173 -10.889,-3.25 -20.361,-8.902 -28.841,-16.139 -11.625,-9.921 -24.42,-17.614 -38.969,-22.25 -10.995,-3.502 -20.429,-9.68 -28.635,-17.445 -8.26,-7.816 -12.574,-17.862 -14.589,-29.226 -2.394,-13.496 1.354,-25.577 6.736,-37.429 1.884,-4.149 2.753,-8.953 6.535,-12.114 z"
         id="path4088" />
      <path
         style="fill:#ceeaf8;fill-rule:evenodd"
         inkscape:connector-curvature="0"
         clip-rule="evenodd"
         d="m 54.468,119.776 c -0.821,0.986 -1.979,0.751 -3.047,0.842 -0.009,-6.627 1.611,-13.078 2.207,-19.653 0.679,-7.495 1.865,-14.989 3.574,-22.413 2.44,-10.598 7.038,-19.987 13.896,-28.201 8.88,-10.638 20.249,-17.454 33.918,-20.213 7.649,-1.543 15.357,-1.257 23.019,-0.263 11.654,1.513 22.114,6.674 32.67,11.368 6.458,2.871 13.321,4.544 20.094,4.835 5.551,0.238 11.476,-0.493 17.046,-2.292 8.802,-2.844 17.834,-5.1 26.982,-6.085 10.933,-1.177 21.712,0.324 32.106,4.493 10.068,4.037 19.249,9.67 28.645,14.925 11.004,6.153 22.797,8.556 35.305,8.393 9.604,-0.125 19.246,1.033 28.443,3.336 9.089,2.275 17.783,6.434 25.379,12.283 11.337,8.729 20.233,19.363 25.425,32.875 1.229,3.2 1.415,6.449 1.124,9.788 -0.967,-0.804 -1.933,-1.608 -2.898,-2.412 -0.207,-0.507 -0.591,-0.774 -1.129,-0.832 l 0.055,0.06 c -2.214,-7.307 -5.614,-14 -9.94,-20.305 -9.241,-13.47 -22.289,-21.674 -37.397,-26.677 -11.671,-3.864 -24.036,-4.134 -36.187,-5.041 -7.706,-0.575 -14.979,-2.334 -22.134,-5.007 -10.449,-3.902 -19.645,-10.272 -29.693,-15.006 -14.017,-6.604 -28.688,-7.709 -43.514,-5.738 -8.081,1.074 -16.11,3.402 -24.17,5.103 -7.28,1.535 -14.703,2.264 -22.086,0.337 -8.808,-2.298 -17.309,-5.509 -25.778,-8.805 -8.049,-3.134 -16.354,-5.312 -24.962,-5.953 -10.129,-0.754 -19.566,1.579 -28.751,6.119 -8.756,4.328 -15.635,10.62 -21.335,18.168 -7.676,10.162 -11.005,22.298 -12.754,34.618 -1.299,9.13 -2.646,18.25 -4.113,27.353 z"
         id="path4090" />
      <path
         style="fill:#fbfcfd;fill-rule:evenodd"
         inkscape:connector-curvature="0"
         clip-rule="evenodd"
         d="m 71.334,131.486 c 2.297,0.532 3.535,-0.122 3.077,-2.72 -0.311,-1.762 -0.593,-3.528 -0.888,-5.292 2.391,0.15 3.466,-0.831 3.961,-3.34 1.052,-5.331 2.364,-10.633 3.942,-15.833 2.912,-9.593 5.103,-19.35 11.673,-27.613 7.818,-9.833 17.685,-14.704 29.914,-15.181 10.891,-0.424 21.131,3.371 31.54,5.715 9.873,2.224 19.831,3.198 29.821,4.279 3.397,0.368 6.524,-1.128 9.848,-1.031 8.306,0.242 16.543,-1.123 24.635,-2.366 7.138,-1.097 13.987,-0.295 20.683,0.772 13.272,2.116 25.467,8.123 37.979,12.815 9.641,3.616 19.418,6.453 29.4,8.809 10.738,2.533 21.814,3.557 32.192,7.736 9.729,3.917 18.4,8.803 24.048,18.239 2.318,3.873 3.433,8.637 7.402,11.469 -4.453,8.545 -4.67,17.342 -1.567,26.337 -1.4,0.349 -2.32,1.222 -2.8,2.574 -2.045,-1.82 -3.219,0.101 -4.643,1.059 -6.924,4.663 -16.49,3.473 -21.112,-2.888 -4.489,-6.176 -6.349,-13.165 -5.022,-20.779 0.807,-4.634 3.051,-8.45 7.379,-10.696 4.7,-2.439 8.654,-1.407 11.609,2.976 0.931,1.38 1.709,2.889 3.156,3.814 1.992,1.273 4.24,1.751 5.959,-0.082 1.641,-1.75 1.317,-4.022 -0.041,-5.943 -0.852,-1.203 -1.965,-2.136 -3.318,-2.913 -2.164,-1.243 -4.537,-1.854 -6.791,-2.805 0.082,-1.275 -0.602,-2.159 -1.41,-3.058 -5.763,-6.407 -13.288,-9.792 -21.339,-11.973 -6.34,-1.717 -12.876,-2.696 -19.299,-4.121 -8.037,-1.783 -16.196,-3.21 -24.026,-5.671 -8.185,-2.573 -16.027,-6.228 -24.044,-9.345 -8.468,-3.293 -16.968,-6.971 -26.016,-7.786 -13.401,-1.208 -26.911,-0.134 -40.267,1.068 -13.653,1.228 -27.005,0.772 -40.381,-2.032 -11.596,-2.433 -22.966,-6.308 -35.134,-5.305 -3.385,0.279 -6.635,0.681 -9.535,2.347 -5.454,3.133 -10.629,6.472 -14.473,11.835 -2.168,3.026 -2.16,6.521 -3.883,9.507 -5.398,9.349 -6.302,20.088 -9.201,30.211 -2.922,3.141 -6.041,6.21 -3.975,11.131 0.314,2.702 -0.855,5.149 -1.429,7.681 -0.456,2.011 -1.74,3.559 -4.139,3.555 -1.89,-3.951 -5.456,-5.949 -9.123,-7.829 3.897,-0.89 3.212,-5.304 5.638,-7.327 z"
         id="path4092" />
      <path
         style="fill:#e6f4fb;fill-rule:evenodd"
         inkscape:connector-curvature="0"
         clip-rule="evenodd"
         d="m 69.258,119.796 c -2.932,-0.647 -5.857,-1.342 -8.887,-1.354 2.474,-11.594 3.624,-23.515 7.232,-34.807 3.94,-12.33 9.375,-23.679 20.572,-31.859 13.961,-10.201 28.971,-11.854 45.198,-8.801 12.173,2.291 23.451,7.658 35.658,10.039 10.311,2.012 20.317,1.653 30.508,-0.076 11.786,-2 23.445,-4.507 35.648,-3.65 10.822,0.76 20.762,3.772 30.398,8.297 6.742,3.166 13.297,6.741 20.086,9.801 13.772,6.207 28.664,7.273 43.387,9.119 7.359,0.923 14.812,2.119 21.651,4.842 12.703,5.058 23.319,13.215 31.285,24.493 2.677,3.791 4.805,7.901 5.376,12.631 -3.309,0.725 -6.686,1.201 -9.773,2.72 -0.711,-1.5 -1.413,-3.004 -2.134,-4.499 -5.898,-12.249 -15.877,-20.128 -27.921,-25.603 -11.401,-5.183 -23.812,-6.458 -35.972,-8.575 -7.964,-1.387 -15.813,-2.992 -23.521,-5.569 -8.668,-2.897 -16.703,-7.151 -25.048,-10.721 -12.352,-5.285 -25.039,-8.345 -38.519,-7.755 -9.407,0.412 -18.689,2.018 -27.996,3.23 -13.689,1.784 -27.042,0.78 -40.195,-3.156 -13.212,-3.954 -26.509,-7.077 -40.472,-6.124 -3.328,0.228 -6.655,0.607 -9.678,1.789 -9.155,3.576 -16.661,9.167 -22.09,17.697 -9.336,14.674 -12.138,31.228 -14.793,47.891 z"
         id="path4094" />
      <path
         style="fill:#f2f9fc;fill-rule:evenodd"
         inkscape:connector-curvature="0"
         clip-rule="evenodd"
         d="m 366.193,156.856 c 0.479,-1.353 1.399,-2.226 2.8,-2.574 1.832,2.729 3.663,5.458 5.494,8.188 -2.488,-0.257 -4.478,0.331 -5.986,2.618 -3.81,5.774 -8.976,10.523 -14.734,13.919 -8.236,4.854 -16.702,9.514 -25.933,12.505 -14.836,4.807 -29.015,11.333 -43.267,17.557 -11.036,4.82 -22.425,8.12 -34.104,10.235 -14.573,2.64 -28.665,6.441 -41.907,13.11 -7.418,3.736 -14.671,7.807 -22.125,11.47 -7.47,3.67 -15.328,6.351 -23.737,6.542 -13.59,0.312 -25.954,-4.479 -37,-11.57 -17.043,-10.942 -35.377,-19.616 -52.266,-30.778 -3.831,-2.532 -7.352,-5.493 -9.689,-9.2 -6.281,-9.96 -10.187,-20.788 -9.289,-32.871 3.259,0.505 6.513,0.475 9.759,-0.117 0.205,2.141 1.063,4.113 1.267,6.309 0.582,6.285 2.205,12.474 5.364,17.894 4.716,8.091 12.503,13.186 20.192,18.055 7.111,4.503 14.604,8.416 22.012,12.437 7.984,4.335 15.147,10.113 23.864,13.181 7.616,2.681 14.811,6.45 23.373,5.833 5.656,-0.407 11.04,-1.181 16.466,-2.972 7.566,-2.497 14.891,-5.24 21.957,-9.056 4.611,-2.489 9.177,-5.224 14.147,-7.165 12.207,-4.769 24.782,-8.294 37.575,-10.836 13.553,-2.692 26.509,-6.808 39.08,-12.544 10.521,-4.801 21.23,-9.321 32.175,-13.023 10.041,-3.396 18.99,-8.552 27.747,-14.235 1.262,-0.818 3.209,-1.406 2.949,-3.608 3.517,-1.246 7.182,-2.204 10.163,-4.584 1.572,-1.259 3.887,-2.032 3.653,-4.72 z"
         id="path4096" />
      <path
         style="fill:#f2f9fc;fill-rule:evenodd"
         inkscape:connector-curvature="0"
         clip-rule="evenodd"
         d="m 69.258,119.796 c 2.655,-16.663 5.457,-33.217 14.795,-47.892 5.429,-8.53 12.935,-14.121 22.09,-17.697 3.023,-1.182 6.351,-1.562 9.678,-1.789 13.963,-0.953 27.26,2.17 40.472,6.124 13.153,3.937 26.506,4.94 40.195,3.156 9.307,-1.213 18.589,-2.818 27.996,-3.23 13.479,-0.59 26.167,2.47 38.519,7.755 8.345,3.569 16.38,7.823 25.048,10.721 7.707,2.577 15.557,4.183 23.521,5.569 12.16,2.117 24.57,3.393 35.972,8.575 12.044,5.475 22.022,13.354 27.921,25.603 0.721,1.495 1.423,2.999 2.134,4.499 -2.732,1.849 -4.845,4.344 -7.037,6.756 -3.97,-2.832 -5.084,-7.596 -7.402,-11.469 -5.647,-9.437 -14.318,-14.322 -24.048,-18.239 -10.378,-4.18 -21.454,-5.203 -32.192,-7.736 -9.982,-2.355 -19.76,-5.192 -29.4,-8.809 -12.514,-4.693 -24.708,-10.7 -37.981,-12.816 -6.695,-1.067 -13.545,-1.869 -20.683,-0.772 -8.092,1.243 -16.329,2.608 -24.635,2.366 -3.324,-0.097 -6.451,1.399 -9.848,1.031 -9.99,-1.081 -19.948,-2.056 -29.821,-4.279 -10.409,-2.344 -20.649,-6.139 -31.54,-5.715 -12.229,0.477 -22.095,5.348 -29.914,15.181 -6.57,8.264 -8.761,18.021 -11.673,27.613 -1.579,5.2 -2.89,10.502 -3.942,15.833 -0.496,2.509 -1.57,3.49 -3.961,3.34 -0.58,-2.202 -2.823,-2.475 -4.264,-3.679 z"
         id="path4098" />
      <path
         style="fill:#e6f4fb;fill-rule:evenodd"
         inkscape:connector-curvature="0"
         clip-rule="evenodd"
         d="m 54.452,166.006 c -0.898,12.083 3.008,22.911 9.289,32.871 2.337,3.707 5.858,6.668 9.689,9.2 16.889,11.162 35.223,19.836 52.266,30.778 11.046,7.092 23.411,11.882 37,11.57 8.409,-0.191 16.267,-2.872 23.737,-6.542 7.454,-3.663 14.706,-7.733 22.125,-11.47 13.242,-6.669 27.333,-10.471 41.907,-13.11 11.679,-2.115 23.067,-5.415 34.104,-10.235 14.252,-6.224 28.431,-12.75 43.267,-17.557 9.23,-2.991 17.696,-7.65 25.933,-12.505 5.759,-3.396 10.925,-8.145 14.734,-13.919 1.509,-2.287 3.498,-2.875 5.986,-2.618 1.705,0.794 3.41,1.589 5.115,2.383 -0.167,1.165 -0.59,2.172 -1.28,3.181 -5.859,8.56 -13.972,14.596 -22.725,19.707 -8.462,4.941 -17.557,8.642 -26.863,11.76 -11.471,3.843 -22.739,8.135 -33.627,13.491 -5.924,2.914 -11.988,5.632 -18.277,7.805 -12.387,4.281 -25.295,6.177 -38.072,8.705 -9.596,1.897 -18.812,4.699 -27.37,9.819 -8.529,5.103 -16.929,10.518 -26.021,14.623 -13.469,6.082 -27.258,7.577 -41.534,2.819 -9.225,-3.075 -17.632,-7.591 -25.461,-13.288 -12.689,-9.234 -26.772,-16 -40.775,-22.896 -8.904,-4.385 -16.428,-10.522 -22.679,-18.13 -8.397,-10.218 -10.439,-22.307 -9.506,-35.115 0.124,-1.694 0.761,-3.233 2.402,-4.113 2.211,0.929 4.423,1.858 6.636,2.786 z"
         id="path4100" />
      <path
         style="fill:#d8eefa;fill-rule:evenodd"
         inkscape:connector-curvature="0"
         clip-rule="evenodd"
         d="m 387.371,118.47 c -0.571,-4.729 -2.699,-8.84 -5.376,-12.631 -7.966,-11.278 -18.582,-19.436 -31.285,-24.493 -6.839,-2.723 -14.292,-3.919 -21.651,-4.842 -14.723,-1.846 -29.614,-2.912 -43.387,-9.119 -6.789,-3.06 -13.344,-6.635 -20.086,-9.801 -9.637,-4.524 -19.576,-7.537 -30.398,-8.297 -12.203,-0.856 -23.862,1.65 -35.648,3.65 -10.191,1.729 -20.197,2.088 -30.508,0.076 -12.207,-2.381 -23.484,-7.748 -35.658,-10.039 -16.228,-3.054 -31.237,-1.4 -45.198,8.801 -11.197,8.181 -16.632,19.529 -20.572,31.859 -3.608,11.292 -4.758,23.213 -7.232,34.807 -1.968,0.445 -3.936,0.891 -5.903,1.335 1.467,-9.104 2.813,-18.224 4.11,-27.354 1.75,-12.32 5.079,-24.456 12.754,-34.618 5.701,-7.548 12.58,-13.84 21.335,-18.168 9.185,-4.54 18.623,-6.873 28.751,-6.119 8.607,0.641 16.913,2.819 24.962,5.953 8.469,3.296 16.97,6.507 25.778,8.805 7.383,1.927 14.806,1.198 22.086,-0.337 8.06,-1.7 16.09,-4.028 24.17,-5.103 14.825,-1.971 29.497,-0.865 43.514,5.738 10.049,4.733 19.244,11.104 29.693,15.006 7.154,2.673 14.428,4.432 22.134,5.007 12.15,0.907 24.516,1.177 36.187,5.041 15.108,5.003 28.156,13.207 37.397,26.677 4.326,6.305 7.727,12.998 9.94,20.305 -1.502,0.056 -2.492,-1.128 -3.791,-1.564 -0.72,-1.895 -1.744,-2.172 -3.119,-0.588 -0.998,0.282 -1.998,0.277 -2.999,0.013 z"
         id="path4102" />
      <path
         style="fill:#d8eefa;fill-rule:evenodd"
         inkscape:connector-curvature="0"
         clip-rule="evenodd"
         d="m 47.814,163.221 c -1.641,0.88 -2.279,2.419 -2.402,4.113 -0.933,12.809 1.108,24.897 9.506,35.115 6.251,7.607 13.774,13.745 22.679,18.13 14.002,6.896 28.085,13.661 40.775,22.896 7.829,5.697 16.236,10.213 25.461,13.288 14.276,4.758 28.065,3.263 41.534,-2.819 9.093,-4.105 17.493,-9.521 26.021,-14.623 8.557,-5.12 17.774,-7.922 27.37,-9.819 12.777,-2.528 25.686,-4.424 38.072,-8.705 6.289,-2.173 12.354,-4.891 18.277,-7.805 10.888,-5.356 22.156,-9.648 33.627,-13.491 9.307,-3.118 18.401,-6.818 26.863,-11.76 8.753,-5.111 16.865,-11.147 22.725,-19.707 0.69,-1.009 1.113,-2.016 1.28,-3.181 1.925,0.503 3.849,1.006 5.772,1.509 0.541,3.354 -1.531,5.613 -3.366,7.952 -5.812,7.409 -13.562,12.465 -21.334,17.483 -12.011,7.755 -25.729,11.257 -39.134,15.44 -8.266,2.58 -15.832,6.486 -23.545,10.27 -11.717,5.748 -23.527,11.558 -36.564,13.742 -7.463,1.251 -15.039,1.782 -22.52,3.097 -12.883,2.263 -24.155,7.924 -34.504,15.623 -9.718,7.229 -20.489,12.868 -32.167,15.076 -11.79,2.229 -23.747,0.878 -35.314,-4.087 -10.394,-4.462 -19.078,-11.244 -28.098,-17.618 -11.347,-8.017 -24.144,-13.07 -36.489,-19.126 -13.963,-6.85 -25.461,-16.366 -31.029,-31.907 -4.899,-13.674 -3.052,-26.605 1.942,-39.6 1.719,-4.473 3.663,-8.888 4.247,-13.718 1.294,1.211 2.588,2.421 3.882,3.632 0.921,3.167 -1.608,5.412 -2.184,8.18 -1.077,-0.369 -2.156,-0.815 -3.489,0.354 0.104,3.969 1.315,7.987 2.106,12.066 z"
         id="path4104" />
      <path
         style="fill:#e6f4fb;fill-rule:evenodd"
         inkscape:connector-curvature="0"
         clip-rule="evenodd"
         d="m 386.272,158.988 c -6.874,-2.194 -9.644,-7.628 -10.764,-14.115 -0.439,-2.544 -0.072,-5.229 -0.072,-8.124 4.771,-0.539 9.345,-0.45 13.926,-0.119 -0.617,5.166 -1.163,10.367 -3.025,15.262 -0.93,2.443 -1.102,4.72 -0.065,7.096 z"
         id="path4106" />
      <path
         style="fill:#d8eefa;fill-rule:evenodd"
         inkscape:connector-curvature="0"
         clip-rule="evenodd"
         d="m 386.272,158.988 c -1.037,-2.376 -0.865,-4.653 0.064,-7.097 1.862,-4.895 2.408,-10.096 3.025,-15.262 2.667,-0.331 5.335,-0.293 8.002,0.001 -1.073,5.727 -1.935,11.507 -3.337,17.151 -0.49,1.969 -0.338,3.451 0.507,5.08 -2.731,1.439 -5.492,1.017 -8.261,0.127 z"
         id="path4108" />
      <path
         style="fill:#d8eefa;fill-rule:evenodd"
         inkscape:connector-curvature="0"
         clip-rule="evenodd"
         d="m 394.921,132.634 c -6.031,0 -12.108,0 -18.177,0 0.588,-6.406 5.294,-10.863 11.166,-10.399 4.774,0.376 7.396,4.089 7.011,10.399 z"
         id="path4110" />
      <path
         style="fill:#ceeaf8;fill-rule:evenodd"
         inkscape:connector-curvature="0"
         clip-rule="evenodd"
         d="m 394.534,158.862 c -0.845,-1.629 -0.997,-3.111 -0.507,-5.08 1.402,-5.645 2.264,-11.425 3.337,-17.151 2.001,-0.019 4.002,-0.037 6.003,-0.056 0.062,3.802 -1.069,7.432 -1.592,11.149 -0.249,1.771 -1.654,4.01 1.499,4.746 -1.849,3.586 -4.616,5.917 -8.74,6.392 z"
         id="path4112" />
      <path
         style="fill:#e6f4fb;fill-rule:evenodd"
         inkscape:connector-curvature="0"
         clip-rule="evenodd"
         d="m 390.371,118.457 c 1.375,-1.584 2.399,-1.307 3.119,0.588 -1.04,-0.196 -2.079,-0.392 -3.119,-0.588 z"
         id="path4114" />
      <path
         style="fill:#d8eefa;fill-rule:evenodd"
         inkscape:connector-curvature="0"
         clip-rule="evenodd"
         d="m 397.227,120.55 c 0.538,0.058 0.922,0.325 1.129,0.832 -0.634,0.072 -0.971,-0.259 -1.129,-0.832 z"
         id="path4116" />
      <path
         style="fill:#fcfcfc;fill-rule:evenodd"
         inkscape:connector-curvature="0"
         clip-rule="evenodd"
         d="m 74.82,146.643 c 2.398,0.004 3.683,-1.544 4.139,-3.555 0.574,-2.531 1.744,-4.979 1.429,-7.681 5.518,1.528 7.806,-0.158 7.889,-5.811 0.062,-4.248 2.028,-6.293 6.6,-6.862 3.982,-0.496 7.461,1.79 8.354,5.49 1.951,8.086 0.561,10.859 -7.082,14.068 -1.838,0.771 -3.644,1.726 -5.562,2.181 -3.604,0.854 -6.025,3.269 -8.067,5.991 -2.722,3.628 -2.703,9.305 -0.139,12.695 2.856,3.776 6.86,3.536 10.905,2.652 3.957,-0.865 7.398,-2.844 10.601,-5.248 5.327,6.996 8.556,7.484 15.183,2.328 0.724,1.3 1.314,2.492 3.279,2.442 5.821,-0.147 11.649,-0.051 17.475,-0.016 2.91,0.019 2.644,-1.616 2.245,-3.359 -1.542,-0.951 -2.911,-0.675 -4.201,-0.623 -3.255,0.13 -4.52,-1.527 -4.456,-4.575 0.028,-1.331 -0.021,-2.663 -0.016,-3.995 0.069,-19.812 0.165,-39.624 0.173,-59.437 0.001,-1.896 0.7,-3.948 -0.983,-6.28 -4.884,3.298 -10.406,5.415 -16.288,8.531 8.838,3.013 8.933,3.012 8.982,11.754 0.092,16.315 0.073,32.631 0.072,48.946 0,1.933 0.482,4.174 -2.202,4.923 -2.378,0.664 -3.654,-0.73 -4.419,-2.672 -5.547,2.194 -6.908,1.305 -7.22,-4.52 -0.071,-1.328 -0.019,-2.663 -0.02,-3.995 -0.004,-7.159 0.069,-14.32 -0.037,-21.478 -0.074,-5.007 -2.207,-7.655 -6.94,-9.107 -2.755,-0.846 -5.493,-0.907 -8.361,-0.349 -4.356,0.849 -8.011,3.121 -11.789,5.192 2.899,-10.123 3.802,-20.862 9.201,-30.211 1.724,-2.985 1.715,-6.48 3.883,-9.507 3.844,-5.363 9.02,-8.702 14.473,-11.835 2.9,-1.666 6.15,-2.067 9.535,-2.347 12.167,-1.003 23.538,2.872 35.134,5.305 13.376,2.805 26.728,3.26 40.381,2.032 13.355,-1.202 26.865,-2.276 40.267,-1.068 9.048,0.815 17.548,4.493 26.016,7.786 8.017,3.117 15.859,6.771 24.044,9.345 7.83,2.461 15.989,3.888 24.026,5.671 6.423,1.425 12.959,2.404 19.299,4.121 8.051,2.181 15.576,5.565 21.339,11.973 0.809,0.898 1.492,1.782 1.41,3.058 -0.494,0.036 -0.988,0.106 -1.482,0.104 -12.368,-0.036 -21.501,6.812 -24.191,18.725 -2.449,10.844 0.301,21.704 12.197,27.597 -3.865,5.631 -10.175,7.977 -15.941,10.159 -12.972,4.909 -26.155,9.391 -38.766,15.095 -17.77,8.037 -36.764,11.711 -55.311,16.927 -6.188,1.74 -12.491,3.032 -18.358,5.706 -10.063,4.588 -20.067,9.305 -30.069,14.025 -10.935,5.161 -22.524,6.757 -33.816,2.851 -9.316,-3.222 -18.289,-7.876 -26.643,-13.313 -6.537,-4.255 -13.267,-8.18 -20.206,-11.643 -7.514,-3.75 -13.536,-9.231 -19.193,-15.104 -6.267,-6.505 -8.473,-14.753 -8.228,-23.694 0.046,-1.664 0.273,-3.492 -2.213,-3.639 4.222,-4.549 5.227,-9.851 3.668,-15.749 z m 165.865,-23.385 c 3.251,0 6.23,-0.058 9.206,0.019 2.366,0.061 3.139,-0.967 2.783,-3.19 -3.619,-0.786 -7.146,0.419 -10.682,-0.817 1.907,-7.652 4.146,-14.929 7.83,-21.68 0.786,-1.441 1.827,-2.797 2.971,-3.979 4.681,-4.842 9.885,-4.309 13.654,1.313 0.74,1.104 1.376,2.289 2.211,3.314 1.479,1.816 3.402,3.032 5.635,1.591 2.605,-1.683 1.645,-4.052 0.468,-6.153 -1.448,-2.587 -3.809,-4.2 -6.538,-5.133 -7.138,-2.438 -13.779,-1.439 -19.739,3.284 -5.085,4.029 -8.437,9.379 -11.064,15.181 -1.841,4.064 -3.349,8.278 -5.042,12.519 -3.32,0.626 -6.646,0.205 -9.948,0.271 -2.136,0.043 -3.691,0.426 -2.878,3.24 3.846,0.668 7.838,-0.303 11.918,0.637 -1.092,3.587 -2.067,6.923 -3.121,10.233 -5.695,17.884 -10.646,36.005 -16.981,53.686 -1.965,5.483 -4.255,10.837 -7.963,15.432 -3.116,3.861 -7.017,6.062 -12.142,5.556 -3.731,-0.369 -4.729,-1.427 -4.776,-5.354 -0.023,-1.899 -0.133,-3.69 -1.906,-4.842 -1.714,-1.111 -3.47,-1.085 -5.142,0.075 -2.077,1.442 -2.485,3.559 -1.741,5.759 1.594,4.705 5.555,6.519 9.992,7.152 9.96,1.423 18.425,-1.386 24.794,-9.511 3.417,-4.358 5.854,-9.255 7.923,-14.354 4.069,-10.025 6.838,-20.476 10.023,-30.788 3.421,-11.076 6.795,-22.164 10.255,-33.461 z m 5.071,18.804 c -0.109,13.61 9.67,24.199 22.408,24.262 12.523,0.062 23.991,-11.309 24.075,-23.873 0.086,-12.772 -10.357,-23.737 -22.659,-23.791 -12.52,-0.055 -23.726,10.952 -23.824,23.402 z m -94.289,-5.166 c 2.288,-0.726 4.124,-0.436 5.931,-0.446 6.663,-0.041 13.326,0.054 19.987,-0.05 3.51,-0.055 3.988,-0.813 3.319,-4.27 -1.65,-8.53 -7.943,-13.653 -16.591,-13.509 -11.54,0.194 -19.591,7.681 -21.226,20.407 -1.397,10.87 2.587,25.125 18.519,27.193 9.305,1.208 18.822,-4.913 20.238,-13.333 -2.267,0.096 -2.267,0.096 -3.855,1.768 -7.994,8.411 -20.353,6.255 -24.997,-4.367 -1.86,-4.256 -1.849,-8.687 -1.325,-13.393 z m 166.722,24.53 c -0.706,-0.055 -1.515,-0.152 -2.324,-0.173 -5.829,-0.148 -5.897,-0.191 -5.919,-5.844 -0.023,-6.161 -0.041,-12.322 0.005,-18.482 0.064,-8.507 3.927,-11.506 11.887,-9.078 2.247,0.686 3.898,0.245 5.361,-1.389 1.341,-1.496 1.635,-3.324 1.012,-5.144 -0.725,-2.113 -2.449,-3.01 -4.648,-3.122 -4.015,-0.206 -6.869,1.968 -9.697,4.421 -1.39,1.206 -2.006,3.402 -4.027,3.733 -1.155,-2.587 0.468,-5.533 -2.049,-7.958 -3.926,3.082 -8.712,4.527 -13.88,7.891 8.561,1.524 8.12,7.291 8.106,12.801 -0.012,4.66 -0.073,9.321 -0.162,13.98 -0.148,7.755 -0.166,7.755 -7.482,8.563 -0.239,1.235 -0.624,2.488 0.639,3.736 7.642,-0.684 15.414,-0.39 22.998,-0.119 0.89,-1.398 0.815,-2.496 0.18,-3.816 z M 185.944,150.767 c -0.884,1.978 0.132,3.516 0.399,5.103 1.366,8.113 3.789,10.178 12.055,10.478 1.681,0.061 3.297,-0.231 4.931,-0.613 7.339,-1.713 11.66,-6.23 12.057,-12.714 0.433,-7.065 -2.535,-11.178 -10.235,-14.015 -2.802,-1.031 -5.722,-1.754 -8.486,-2.871 -2.867,-1.159 -4.406,-3.389 -4.428,-6.601 -0.022,-3.308 1.81,-5.271 4.632,-6.421 3.35,-1.365 6.601,-1.049 9.279,1.499 1.429,1.359 2.455,3.135 3.73,4.665 1.014,1.217 1.776,3.031 3.954,2.068 1.232,-7.638 -0.616,-10.43 -7.808,-12.138 -2.145,-0.51 -4.276,-0.743 -6.432,-0.519 -9.314,0.97 -15.284,8.637 -13.224,16.836 1.182,4.705 4.629,7.146 8.761,8.854 3.066,1.268 6.322,2.111 9.304,3.54 3.67,1.76 5.466,5.705 4.562,9.026 -0.94,3.449 -4.228,5.55 -8.489,5.613 -3.522,0.053 -6.084,-1.489 -7.844,-4.416 -1.113,-1.851 -2.1,-3.781 -3.064,-5.716 -0.733,-1.471 -1.528,-2.643 -3.654,-1.658 z"
         id="path4118" />
      <path
         style="fill:#fbfcfd;fill-rule:evenodd"
         inkscape:connector-curvature="0"
         clip-rule="evenodd"
         d="m 71.148,162.394 c 2.487,0.146 2.259,1.975 2.213,3.639 -0.245,8.941 1.961,17.189 8.228,23.694 5.658,5.873 11.679,11.354 19.193,15.104 6.939,3.463 13.669,7.388 20.206,11.643 8.354,5.438 17.326,10.092 26.643,13.313 11.292,3.906 22.881,2.311 33.816,-2.851 10.001,-4.721 20.006,-9.438 30.069,-14.025 5.867,-2.674 12.17,-3.966 18.358,-5.706 18.547,-5.216 37.541,-8.89 55.311,-16.927 12.61,-5.704 25.794,-10.186 38.766,-15.095 5.767,-2.183 12.076,-4.528 15.941,-10.159 3.979,2.394 8.315,0.837 12.484,1.132 0.26,2.202 -1.688,2.79 -2.949,3.608 -8.757,5.684 -17.706,10.84 -27.747,14.235 -10.944,3.702 -21.653,8.223 -32.175,13.023 -12.571,5.736 -25.527,9.852 -39.08,12.544 -12.793,2.542 -25.368,6.067 -37.575,10.836 -4.97,1.941 -9.537,4.676 -14.147,7.165 -7.066,3.815 -14.391,6.559 -21.957,9.056 -5.427,1.791 -10.811,2.564 -16.466,2.972 -8.562,0.617 -15.756,-3.152 -23.373,-5.833 -8.716,-3.067 -15.879,-8.846 -23.864,-13.181 -7.407,-4.021 -14.9,-7.934 -22.012,-12.437 -7.688,-4.869 -15.476,-9.964 -20.192,-18.055 -3.159,-5.42 -4.782,-11.608 -5.364,-17.894 -0.204,-2.195 -1.062,-4.168 -1.267,-6.309 2.315,-1.162 4.628,-2.327 6.94,-3.492 z"
         id="path4120" />
      <path
         style="fill:#f2f9fc;fill-rule:evenodd"
         inkscape:connector-curvature="0"
         clip-rule="evenodd"
         d="m 59.438,146.138 c 1.511,0.118 2.888,0.665 4.234,1.314 4.758,2.296 6.722,6.327 5.046,10.364 -1.58,3.806 -6.433,5.797 -10.948,4.41 -1.417,-0.435 -2.812,-1.029 -3.55,-2.492 3.539,-3.841 4.566,-8.647 5.218,-13.596 z"
         id="path4122" />
      <path
         style="fill:#e6f4fb;fill-rule:evenodd"
         inkscape:connector-curvature="0"
         clip-rule="evenodd"
         d="m 71.334,131.486 c -2.426,2.022 -1.741,6.437 -5.637,7.327 -2.901,-0.386 -5.606,-1.433 -8.319,-2.455 1.236,-4.618 4.074,-8.771 3.999,-13.769 5.615,0.396 7.32,5.168 9.957,8.897 z"
         id="path4124" />
      <path
         style="fill:#e6f4fb;fill-rule:evenodd"
         inkscape:connector-curvature="0"
         clip-rule="evenodd"
         d="m 59.438,146.138 c -0.652,4.949 -1.679,9.755 -5.218,13.597 -2.581,-2.469 -3.759,-5.725 -5.022,-8.934 0.575,-2.768 3.104,-5.013 2.184,-8.18 2.685,1.172 5.37,2.345 8.056,3.517 z"
         id="path4126" />
      <path
         style="fill:#d8eefa;fill-rule:evenodd"
         inkscape:connector-curvature="0"
         clip-rule="evenodd"
         d="m 61.376,122.59 c 0.075,4.998 -2.763,9.15 -3.999,13.769 -4.315,-2.347 -5.786,-4.877 -4.93,-8.483 0.803,-3.386 3.941,-5.243 8.929,-5.286 z"
         id="path4128" />
      <path
         style="fill:#858080;fill-rule:evenodd"
         inkscape:connector-curvature="0"
         clip-rule="evenodd"
         d="m 84.362,124.276 c 3.777,-2.071 7.433,-4.344 11.789,-5.192 2.868,-0.559 5.606,-0.497 8.361,0.349 4.734,1.452 6.866,4.101 6.94,9.107 0.106,7.157 0.033,14.318 0.037,21.478 10e-4,1.332 -0.051,2.667 0.02,3.995 0.312,5.824 1.672,6.714 7.22,4.52 0.765,1.941 2.041,3.336 4.419,2.672 2.684,-0.749 2.202,-2.99 2.202,-4.923 0.001,-16.315 0.021,-32.631 -0.072,-48.946 -0.049,-8.742 -0.144,-8.741 -8.982,-11.754 5.881,-3.116 11.403,-5.233 16.288,-8.531 1.684,2.332 0.984,4.384 0.983,6.28 -0.008,19.812 -0.104,39.624 -0.173,59.437 -0.004,1.332 0.044,2.664 0.016,3.995 -0.063,3.048 1.201,4.705 4.456,4.575 1.291,-0.052 2.66,-0.328 4.201,0.623 0.399,1.743 0.665,3.378 -2.245,3.359 -5.825,-0.035 -11.653,-0.132 -17.475,0.016 -1.965,0.05 -2.556,-1.143 -3.279,-2.442 -6.627,5.156 -9.856,4.668 -15.183,-2.328 -3.202,2.404 -6.644,4.383 -10.601,5.248 -4.045,0.884 -8.049,1.124 -10.905,-2.652 -2.564,-3.391 -2.583,-9.067 0.139,-12.695 2.042,-2.723 4.462,-5.137 8.067,-5.991 1.919,-0.455 3.724,-1.409 5.562,-2.181 7.643,-3.209 9.033,-5.982 7.082,-14.068 -0.893,-3.7 -4.371,-5.986 -8.354,-5.49 -4.572,0.569 -6.539,2.614 -6.6,6.862 -0.083,5.652 -2.371,7.339 -7.889,5.811 -2.064,-4.924 1.054,-7.993 3.976,-11.134 z m 19.102,18.292 c -5.159,1.909 -9.924,3.428 -12.838,7.864 -1.754,2.672 -2.135,5.674 -0.245,8.396 1.54,2.216 3.844,3.028 6.563,1.987 3.166,-1.213 6.325,-2.512 6.488,-6.562 0.151,-3.757 0.032,-7.525 0.032,-11.685 z"
         id="path4130" />
      <path
         style="fill:#101112;fill-rule:evenodd"
         inkscape:connector-curvature="0"
         clip-rule="evenodd"
         d="m 352.377,166.156 c -4.169,-0.295 -8.506,1.262 -12.484,-1.132 -11.896,-5.893 -14.646,-16.753 -12.197,-27.597 2.69,-11.912 11.823,-18.761 24.191,-18.725 0.494,0.002 0.988,-0.068 1.482,-0.104 2.254,0.951 4.627,1.562 6.791,2.805 1.354,0.777 2.467,1.71 3.318,2.913 1.358,1.921 1.682,4.193 0.041,5.943 -1.719,1.833 -3.967,1.355 -5.959,0.082 -1.447,-0.926 -2.226,-2.435 -3.156,-3.814 -2.955,-4.383 -6.909,-5.415 -11.609,-2.976 -4.328,2.246 -6.572,6.062 -7.379,10.696 -1.326,7.614 0.533,14.604 5.022,20.779 4.622,6.36 14.188,7.551 21.112,2.888 1.424,-0.958 2.598,-2.879 4.643,-1.059 0.233,2.688 -2.081,3.461 -3.653,4.716 -2.981,2.381 -6.646,3.339 -10.163,4.585 z"
         id="path4132" />
      <path
         style="fill:#101112;fill-rule:evenodd"
         inkscape:connector-curvature="0"
         clip-rule="evenodd"
         d="m 240.685,123.258 c -3.46,11.297 -6.834,22.385 -10.255,33.459 -3.186,10.312 -5.954,20.763 -10.023,30.788 -2.069,5.099 -4.505,9.995 -7.923,14.354 -6.369,8.125 -14.834,10.934 -24.794,9.511 -4.437,-0.634 -8.397,-2.447 -9.992,-7.152 -0.745,-2.2 -0.336,-4.316 1.741,-5.759 1.671,-1.16 3.427,-1.187 5.142,-0.075 1.773,1.151 1.883,2.942 1.906,4.842 0.047,3.928 1.045,4.985 4.776,5.354 5.125,0.507 9.025,-1.694 12.142,-5.556 3.708,-4.595 5.999,-9.948 7.963,-15.432 6.335,-17.681 11.286,-35.802 16.981,-53.686 1.054,-3.311 2.029,-6.646 3.121,-10.233 -4.08,-0.939 -8.072,0.031 -11.918,-0.637 -0.813,-2.814 0.742,-3.197 2.878,-3.24 3.302,-0.065 6.628,0.355 9.948,-0.271 1.693,-4.24 3.201,-8.454 5.042,-12.519 2.628,-5.802 5.979,-11.151 11.064,-15.181 5.96,-4.724 12.602,-5.723 19.739,-3.284 2.729,0.933 5.09,2.546 6.538,5.133 1.177,2.102 2.138,4.471 -0.468,6.153 -2.232,1.441 -4.155,0.226 -5.635,-1.591 -0.835,-1.025 -1.471,-2.211 -2.211,-3.314 -3.77,-5.622 -8.974,-6.155 -13.654,-1.313 -1.144,1.183 -2.185,2.538 -2.971,3.979 -3.684,6.751 -5.923,14.027 -7.83,21.68 3.535,1.236 7.062,0.031 10.682,0.817 0.355,2.224 -0.417,3.251 -2.783,3.19 -2.976,-0.075 -5.955,-0.017 -9.206,-0.017 z"
         id="path4134" />
      <path
         style="fill:#101112;fill-rule:evenodd"
         inkscape:connector-curvature="0"
         clip-rule="evenodd"
         d="m 245.756,142.062 c 0.098,-12.45 11.304,-23.457 23.824,-23.402 12.302,0.054 22.745,11.019 22.659,23.791 -0.084,12.564 -11.552,23.936 -24.075,23.873 -12.738,-0.062 -22.518,-10.651 -22.408,-24.262 z m 9.01,0.131 c -0.013,5.26 0.787,10.763 4.447,15.506 5.509,7.143 14.693,6.864 19.641,-0.63 1.576,-2.39 2.631,-5.025 3.205,-7.788 1.85,-8.918 1.127,-17.269 -6.141,-23.826 -5.342,-4.821 -11.429,-4.342 -16.231,0.963 -3.971,4.386 -4.72,9.731 -4.921,15.775 z"
         id="path4136" />
      <path
         style="fill:#858080;fill-rule:evenodd"
         inkscape:connector-curvature="0"
         clip-rule="evenodd"
         d="m 151.467,136.896 c -0.524,4.706 -0.536,9.138 1.325,13.394 4.644,10.622 17.003,12.778 24.997,4.367 1.588,-1.672 1.588,-1.672 3.855,-1.768 -1.416,8.42 -10.933,14.541 -20.238,13.333 -15.932,-2.068 -19.916,-16.323 -18.519,-27.193 1.635,-12.727 9.687,-20.213 21.226,-20.407 8.648,-0.145 14.941,4.979 16.591,13.509 0.669,3.456 0.191,4.215 -3.319,4.27 -6.661,0.104 -13.325,0.009 -19.987,0.05 -1.807,0.009 -3.643,-0.281 -5.931,0.445 z m 0.621,-3.716 c 5.725,0 10.683,0.139 15.627,-0.048 3.418,-0.129 4.067,-1.275 3.14,-4.476 -1.653,-5.702 -6.991,-8.265 -12.104,-5.545 -3.649,1.942 -5.887,5.083 -6.663,10.069 z"
         id="path4138" />
      <path
         style="fill:#101112;fill-rule:evenodd"
         inkscape:connector-curvature="0"
         clip-rule="evenodd"
         d="m 318.189,163.426 c 0.635,1.32 0.71,2.418 -0.182,3.817 -7.584,-0.271 -15.356,-0.564 -22.998,0.119 -1.263,-1.248 -0.878,-2.501 -0.639,-3.736 7.316,-0.809 7.334,-0.809 7.482,-8.563 0.089,-4.659 0.15,-9.32 0.162,-13.98 0.014,-5.51 0.454,-11.276 -8.106,-12.801 5.168,-3.363 9.954,-4.809 13.88,-7.891 2.517,2.425 0.894,5.371 2.049,7.958 2.021,-0.331 2.638,-2.527 4.027,-3.733 2.828,-2.453 5.683,-4.627 9.697,-4.421 2.199,0.112 3.924,1.009 4.648,3.122 0.623,1.819 0.329,3.647 -1.012,5.144 -1.463,1.634 -3.114,2.074 -5.361,1.389 -7.96,-2.428 -11.822,0.571 -11.887,9.078 -0.046,6.16 -0.028,12.321 -0.005,18.482 0.021,5.652 0.09,5.695 5.919,5.844 0.812,0.019 1.62,0.117 2.326,0.172 z"
         id="path4140" />
      <path
         style="fill:#858080;fill-rule:evenodd"
         inkscape:connector-curvature="0"
         clip-rule="evenodd"
         d="m 185.944,150.767 c 2.125,-0.984 2.921,0.188 3.654,1.659 0.964,1.935 1.951,3.865 3.064,5.716 1.76,2.927 4.322,4.469 7.844,4.416 4.261,-0.063 7.549,-2.164 8.489,-5.613 0.905,-3.321 -0.891,-7.267 -4.562,-9.026 -2.982,-1.429 -6.238,-2.272 -9.304,-3.54 -4.132,-1.707 -7.579,-4.148 -8.761,-8.854 -2.06,-8.199 3.91,-15.866 13.224,-16.836 2.156,-0.225 4.287,0.009 6.432,0.519 7.191,1.708 9.04,4.5 7.807,12.14 -2.177,0.961 -2.939,-0.854 -3.953,-2.07 -1.276,-1.53 -2.302,-3.306 -3.73,-4.665 -2.678,-2.548 -5.929,-2.864 -9.279,-1.499 -2.822,1.15 -4.654,3.113 -4.632,6.421 0.022,3.212 1.562,5.441 4.428,6.601 2.764,1.117 5.684,1.84 8.486,2.871 7.7,2.837 10.667,6.949 10.235,14.015 -0.397,6.483 -4.717,11.001 -12.057,12.714 -1.634,0.382 -3.25,0.674 -4.931,0.613 -8.266,-0.3 -10.689,-2.364 -12.055,-10.478 -0.266,-1.589 -1.282,-3.127 -0.399,-5.104 z"
         id="path4142" />
      <path
         style="fill:#fbfcfd;fill-rule:evenodd"
         inkscape:connector-curvature="0"
         clip-rule="evenodd"
         d="m 103.464,142.568 c 0,4.159 0.119,7.928 -0.032,11.686 -0.163,4.05 -3.322,5.349 -6.488,6.562 -2.719,1.041 -5.023,0.229 -6.563,-1.987 -1.89,-2.722 -1.509,-5.724 0.245,-8.396 2.914,-4.437 7.679,-5.955 12.838,-7.865 z"
         id="path4144" />
      <path
         style="fill:#fbfcfd;fill-rule:evenodd"
         inkscape:connector-curvature="0"
         clip-rule="evenodd"
         d="m 254.766,142.193 c 0.201,-6.044 0.95,-11.39 4.921,-15.775 4.803,-5.305 10.89,-5.784 16.231,-0.963 7.268,6.558 7.99,14.908 6.141,23.826 -0.574,2.763 -1.629,5.398 -3.205,7.788 -4.947,7.494 -14.132,7.772 -19.641,0.63 -3.66,-4.743 -4.46,-10.246 -4.447,-15.506 z"
         id="path4146" />
      <path
         style="fill:#f2f9fc;fill-rule:evenodd"
         inkscape:connector-curvature="0"
         clip-rule="evenodd"
         d="m 152.088,133.18 c 0.776,-4.985 3.013,-8.127 6.664,-10.068 5.113,-2.72 10.451,-0.157 12.104,5.545 0.927,3.2 0.279,4.347 -3.14,4.476 -4.945,0.185 -9.903,0.047 -15.628,0.047 z"
         id="path4148" />
    </g>
  </g>
  <g
     inkscape:groupmode="layer"
     id="layer3"
     inkscape:label="PLACE YOUR PICTOGRAM HERE"
     style="display:inline" />
  <g
     inkscape:groupmode="layer"
     id="layer2"
     inkscape:label="BADGE"
     style="display:none"
     sodipodi:insensitive="true">
    <g
       style="display:inline"
       transform="translate(-340.00001,-581)"
       id="g4394"
       clip-path="none">
      <g
         id="g855">
        <g
           inkscape:groupmode="maskhelper"
           id="g870"
           clip-path="url(#clipPath873)"
           style="opacity:0.6;filter:url(#filter891)">
          <path
             transform="matrix(1.4999992,0,0,1.4999992,-29.999795,-237.54282)"
             d="m 264,552.36218 c 0,6.62742 -5.37258,12 -12,12 -6.62742,0 -12,-5.37258 -12,-12 0,-6.62741 5.37258,-12 12,-12 6.62742,0 12,5.37259 12,12 z"
             sodipodi:ry="12"
             sodipodi:rx="12"
             sodipodi:cy="552.36218"
             sodipodi:cx="252"
             id="path844"
             style="color:#000000;fill:#000000;fill-opacity:1;fill-rule:nonzero;stroke:none;stroke-width:4;marker:none;visibility:visible;display:inline;overflow:visible;enable-background:accumulate"
             sodipodi:type="arc" />
        </g>
        <g
           id="g862">
          <path
             sodipodi:type="arc"
             style="color:#000000;fill:#f5f5f5;fill-opacity:1;fill-rule:nonzero;stroke:none;stroke-width:4;marker:none;visibility:visible;display:inline;overflow:visible;enable-background:accumulate"
             id="path4398"
             sodipodi:cx="252"
             sodipodi:cy="552.36218"
             sodipodi:rx="12"
             sodipodi:ry="12"
             d="m 264,552.36218 c 0,6.62742 -5.37258,12 -12,12 -6.62742,0 -12,-5.37258 -12,-12 0,-6.62741 5.37258,-12 12,-12 6.62742,0 12,5.37259 12,12 z"
             transform="matrix(1.4999992,0,0,1.4999992,-29.999795,-238.54282)" />
          <path
             transform="matrix(1.25,0,0,1.25,33,-100.45273)"
             d="m 264,552.36218 c 0,6.62742 -5.37258,12 -12,12 -6.62742,0 -12,-5.37258 -12,-12 0,-6.62741 5.37258,-12 12,-12 6.62742,0 12,5.37259 12,12 z"
             sodipodi:ry="12"
             sodipodi:rx="12"
             sodipodi:cy="552.36218"
             sodipodi:cx="252"
             id="path4400"
             style="color:#000000;fill:#dd4814;fill-opacity:1;fill-rule:nonzero;stroke:none;stroke-width:4;marker:none;visibility:visible;display:inline;overflow:visible;enable-background:accumulate"
             sodipodi:type="arc" />
          <path
             sodipodi:type="star"
             style="color:#000000;fill:#f5f5f5;fill-opacity:1;fill-rule:nonzero;stroke:none;stroke-width:3;marker:none;visibility:visible;display:inline;overflow:visible;enable-background:accumulate"
             id="path4459"
             sodipodi:sides="5"
             sodipodi:cx="666.19574"
             sodipodi:cy="589.50385"
             sodipodi:r1="7.2431178"
             sodipodi:r2="4.3458705"
             sodipodi:arg1="1.0471976"
             sodipodi:arg2="1.6755161"
             inkscape:flatsided="false"
             inkscape:rounded="0.1"
             inkscape:randomized="0"
             d="m 669.8173,595.77657 c -0.39132,0.22593 -3.62645,-1.90343 -4.07583,-1.95066 -0.44938,-0.0472 -4.05653,1.36297 -4.39232,1.06062 -0.3358,-0.30235 0.68963,-4.03715 0.59569,-4.47913 -0.0939,-0.44198 -2.5498,-3.43681 -2.36602,-3.8496 0.18379,-0.41279 4.05267,-0.59166 4.44398,-0.81759 0.39132,-0.22593 2.48067,-3.48704 2.93005,-3.4398 0.44938,0.0472 1.81505,3.67147 2.15084,3.97382 0.3358,0.30236 4.08294,1.2817 4.17689,1.72369 0.0939,0.44198 -2.9309,2.86076 -3.11469,3.27355 -0.18379,0.41279 0.0427,4.27917 -0.34859,4.5051 z"
             transform="matrix(1.511423,-0.16366377,0.16366377,1.511423,-755.37346,-191.93651)" />
        </g>
      </g>
    </g>
  </g>
</svg>
